<svg width="191" height="188" viewBox="0 0 191 188" fill="none" xmlns="http://www.w3.org/2000/svg">
<path d="M9.93477 142.523L24.7373 164.907V142.317C24.6473 141.138 24.9804 139.965 25.6769 139.009C25.9954 138.644 26.3924 138.355 26.8381 138.165C27.2839 137.974 27.767 137.887 28.2513 137.909C28.7381 137.889 29.2234 137.977 29.6719 138.167C30.1205 138.358 30.5211 138.645 30.8449 139.009C31.5514 139.961 31.8918 141.135 31.8039 142.317V172.193C31.8039 175.527 30.4223 177.193 27.6592 177.193C27.0248 177.2 26.3939 177.1 25.7928 176.897C25.2182 176.684 24.6896 176.363 24.2353 175.951C23.732 175.487 23.2809 174.969 22.8902 174.407C22.4783 173.828 22.06 173.235 21.6481 172.63L7.21239 150.53V172.785C7.30004 173.971 6.93947 175.147 6.20196 176.08C5.87923 176.441 5.48184 176.728 5.03731 176.92C4.59279 177.112 4.11177 177.206 3.62761 177.193C3.13476 177.212 2.64397 177.121 2.19088 176.926C1.73779 176.731 1.33379 176.438 1.00821 176.067C0.287145 175.131 -0.0675569 173.964 0.0106445 172.785V143.515C-0.0267491 142.521 0.114954 141.529 0.428977 140.586C0.757648 139.789 1.32684 139.114 2.05725 138.655C2.78691 138.173 3.64116 137.914 4.51576 137.909C5.12341 137.894 5.72716 138.01 6.28563 138.25C6.7669 138.471 7.20328 138.778 7.5728 139.157C7.99839 139.611 8.37982 140.105 8.71195 140.631C9.11741 141.236 9.52287 141.867 9.93477 142.523Z" fill="white"/>
<path d="M66.2164 162.822C66.237 164.809 65.9035 166.783 65.2318 168.653C64.6167 170.367 63.6449 171.931 62.3807 173.242C61.1254 174.526 59.6087 175.524 57.9335 176.17C56.0842 176.872 54.1191 177.22 52.1412 177.193C50.1616 177.225 48.1947 176.873 46.3489 176.157C44.6606 175.494 43.1333 174.478 41.8691 173.177C40.605 171.877 39.6331 170.321 39.0184 168.614C37.7141 164.823 37.7141 160.705 39.0184 156.914C39.6315 155.218 40.5941 153.67 41.8438 152.37C43.1164 151.083 44.6536 150.089 46.3489 149.455C50.0892 148.087 54.1931 148.087 57.9335 149.455C59.6303 150.104 61.167 151.111 62.4386 152.409C63.6952 153.713 64.6623 155.268 65.2768 156.972C65.9335 158.851 66.2517 160.832 66.2164 162.822ZM59.137 162.822C59.137 159.939 58.4934 157.695 57.2062 156.09C56.6065 155.31 55.8295 154.685 54.9397 154.265C54.0499 153.845 53.0729 153.644 52.0897 153.677C50.79 153.653 49.5143 154.028 48.4341 154.752C47.3235 155.543 46.4742 156.648 45.9949 157.924C45.4023 159.488 45.1161 161.151 45.1518 162.822C45.1154 164.476 45.3995 166.122 45.9885 167.668C46.4656 168.939 47.3046 170.042 48.4019 170.841C49.7734 171.751 51.4335 172.119 53.061 171.876C54.6885 171.632 56.1678 170.793 57.2127 169.522C58.4827 167.9 59.1177 165.667 59.1177 162.822H59.137Z" fill="white"/>
<path d="M78.316 141.951V152.757C79.4972 151.492 80.8698 150.422 82.3834 149.584C83.9831 148.799 85.7515 148.421 87.5321 148.483C89.7098 148.434 91.8554 149.015 93.7106 150.157C95.5346 151.326 96.9704 153.01 97.836 154.996C98.8606 157.371 99.359 159.94 99.2969 162.526C99.3187 164.521 99.0433 166.508 98.4796 168.422C97.9905 170.108 97.1869 171.687 96.1112 173.075C95.1028 174.364 93.8128 175.405 92.3397 176.119C90.815 176.846 89.1439 177.213 87.4549 177.194C86.4186 177.201 85.386 177.069 84.385 176.801C83.5229 176.585 82.6984 176.24 81.9394 175.778C81.3226 175.408 80.7447 174.977 80.2145 174.491C79.7383 174.04 79.114 173.371 78.3353 172.47V173.171C78.4133 174.263 78.0702 175.343 77.3763 176.19C77.0662 176.522 76.689 176.786 76.2697 176.962C75.8503 177.139 75.3984 177.224 74.9436 177.213C74.4925 177.232 74.0428 177.15 73.6275 176.973C73.2122 176.796 72.8416 176.528 72.543 176.19C71.8915 175.324 71.5739 174.252 71.6484 173.171V142.279C71.5674 141.127 71.8732 139.981 72.5172 139.022C72.8048 138.659 73.175 138.37 73.597 138.178C74.019 137.987 74.4807 137.899 74.9436 137.922C75.4141 137.895 75.8848 137.975 76.3197 138.157C76.7546 138.338 77.1424 138.617 77.4536 138.971C78.0812 139.833 78.3864 140.887 78.316 141.951ZM78.6506 162.97C78.6506 165.785 79.2942 167.947 80.5814 169.458C81.1983 170.195 81.975 170.782 82.8526 171.175C83.7302 171.567 84.6856 171.755 85.6464 171.723C86.5402 171.718 87.4207 171.506 88.219 171.104C89.0173 170.703 89.7118 170.121 90.2481 169.406C91.5353 167.862 92.1788 165.646 92.1788 162.758C92.216 161.115 91.943 159.48 91.3744 157.938C90.9231 156.704 90.1335 155.622 89.0961 154.816C88.0991 154.079 86.8862 153.692 85.6464 153.716C84.3615 153.696 83.1031 154.081 82.0488 154.816C80.9315 155.632 80.068 156.748 79.5581 158.034C78.9216 159.6 78.6128 161.28 78.6506 162.97Z" fill="white"/>
<path d="M108.526 145.143C107.602 145.164 106.702 144.84 106.003 144.235C105.647 143.912 105.368 143.513 105.186 143.067C105.005 142.622 104.925 142.141 104.954 141.661C104.94 141.195 105.029 140.732 105.215 140.305C105.401 139.878 105.679 139.497 106.029 139.19C106.705 138.556 107.6 138.208 108.526 138.218C109.418 138.207 110.284 138.517 110.965 139.093C111.327 139.413 111.611 139.811 111.795 140.257C111.979 140.703 112.059 141.186 112.027 141.667C112.055 142.146 111.976 142.626 111.797 143.071C111.618 143.516 111.343 143.916 110.991 144.242C110.312 144.842 109.432 145.164 108.526 145.143ZM112.027 152.448V172.894C112.114 174.057 111.753 175.208 111.017 176.112C110.691 176.468 110.293 176.749 109.848 176.937C109.404 177.125 108.924 177.214 108.442 177.2C107.966 177.213 107.492 177.12 107.056 176.927C106.619 176.735 106.231 176.448 105.919 176.087C105.21 175.17 104.864 174.024 104.948 172.869V152.654C104.859 151.515 105.207 150.386 105.919 149.494C106.237 149.144 106.628 148.867 107.064 148.684C107.499 148.501 107.97 148.414 108.442 148.432C108.922 148.417 109.4 148.504 109.843 148.687C110.287 148.87 110.687 149.145 111.017 149.494C111.729 150.307 112.092 151.368 112.027 152.448Z" fill="white"/>
<path d="M119.332 172.895V142.228C119.249 141.076 119.585 139.934 120.278 139.01C120.598 138.647 120.995 138.36 121.441 138.172C121.887 137.984 122.369 137.898 122.852 137.922C123.333 137.906 123.812 137.994 124.257 138.179C124.701 138.365 125.1 138.644 125.427 138.997C126.145 139.909 126.496 141.057 126.411 142.215V172.895C126.499 174.055 126.142 175.206 125.414 176.113C125.087 176.466 124.688 176.745 124.244 176.931C123.799 177.116 123.32 177.204 122.839 177.188C122.362 177.202 121.887 177.109 121.449 176.916C121.012 176.724 120.623 176.436 120.31 176.074C119.61 175.168 119.263 174.038 119.332 172.895Z" fill="white"/>
<path d="M137.288 145.143C136.364 145.164 135.464 144.84 134.765 144.235C134.409 143.912 134.13 143.513 133.948 143.067C133.767 142.622 133.687 142.141 133.716 141.661C133.702 141.195 133.791 140.732 133.977 140.305C134.163 139.878 134.441 139.497 134.791 139.19C135.467 138.556 136.362 138.208 137.288 138.218C138.18 138.207 139.046 138.517 139.727 139.093C140.089 139.413 140.373 139.811 140.557 140.257C140.741 140.703 140.82 141.186 140.789 141.667C140.817 142.146 140.738 142.626 140.559 143.071C140.38 143.516 140.105 143.916 139.753 144.242C139.074 144.841 138.194 145.163 137.288 145.143ZM140.789 152.448V172.894C140.876 174.057 140.515 175.208 139.779 176.112C139.453 176.468 139.054 176.749 138.61 176.937C138.166 177.125 137.686 177.214 137.204 177.2C136.728 177.213 136.254 177.12 135.818 176.927C135.381 176.735 134.993 176.448 134.681 176.087C133.972 175.17 133.626 174.024 133.71 172.869V152.654C133.621 151.515 133.969 150.386 134.681 149.494C134.999 149.144 135.39 148.867 135.826 148.684C136.261 148.501 136.732 148.414 137.204 148.432C137.684 148.417 138.162 148.504 138.605 148.687C139.049 148.87 139.449 149.145 139.779 149.494C140.491 150.307 140.854 151.368 140.789 152.448Z" fill="white"/>
<path d="M148.486 149.05H149.259V144.802C149.259 143.663 149.259 142.768 149.355 142.125C149.394 141.536 149.566 140.964 149.857 140.451C150.143 139.96 150.554 139.554 151.048 139.273C151.576 138.968 152.176 138.81 152.785 138.817C153.699 138.824 154.573 139.186 155.225 139.827C155.699 140.263 156.02 140.841 156.139 141.475C156.294 142.386 156.36 143.311 156.338 144.236V149.05H158.912C159.741 148.992 160.56 149.247 161.21 149.764C161.466 149.993 161.668 150.276 161.804 150.591C161.939 150.907 162.005 151.248 161.995 151.592C162.029 151.999 161.939 152.407 161.739 152.762C161.538 153.118 161.235 153.405 160.869 153.587C159.853 154.018 158.753 154.214 157.651 154.16H156.364V167.167C156.35 168.026 156.389 168.886 156.48 169.741C156.538 170.281 156.763 170.789 157.123 171.195C157.344 171.398 157.604 171.552 157.888 171.648C158.172 171.743 158.473 171.778 158.771 171.749C159.339 171.731 159.903 171.658 160.457 171.53C161 171.404 161.554 171.331 162.111 171.311C162.402 171.313 162.69 171.376 162.955 171.494C163.221 171.613 163.46 171.785 163.656 172C163.88 172.22 164.057 172.484 164.175 172.775C164.293 173.066 164.351 173.378 164.344 173.693C164.344 174.83 163.722 175.703 162.478 176.312C160.776 177.001 158.944 177.311 157.11 177.219C154.903 177.219 153.249 176.846 152.084 176.106C150.971 175.403 150.169 174.299 149.844 173.023C149.444 171.298 149.265 169.529 149.31 167.759V154.16H148.383C147.541 154.218 146.707 153.959 146.047 153.432C145.787 153.203 145.58 152.919 145.441 152.601C145.302 152.283 145.234 151.939 145.243 151.592C145.235 151.243 145.307 150.897 145.453 150.581C145.599 150.264 145.816 149.985 146.086 149.764C146.778 149.253 147.627 149 148.486 149.05Z" fill="white"/>
<path d="M173.413 178.075L174.056 176.492L165.355 154.571C164.925 153.71 164.653 152.78 164.55 151.823C164.547 151.231 164.708 150.65 165.014 150.143C165.328 149.623 165.771 149.193 166.301 148.895C166.814 148.594 167.398 148.434 167.994 148.431C168.428 148.401 168.863 148.473 169.265 148.642C169.666 148.811 170.022 149.072 170.304 149.403C170.919 150.246 171.383 151.189 171.675 152.19L177.66 169.567L183.337 153.374C183.682 152.324 184.088 151.295 184.553 150.291C184.797 149.696 185.195 149.177 185.705 148.785C186.233 148.498 186.83 148.364 187.43 148.399C187.976 148.406 188.51 148.555 188.981 148.832C189.451 149.108 189.842 149.503 190.114 149.976C190.374 150.445 190.511 150.972 190.513 151.508C190.442 151.836 190.332 152.299 190.178 152.904C190.024 153.509 189.83 154.127 189.605 154.745L180.383 178.912C179.769 180.65 178.989 182.325 178.053 183.912C177.314 185.095 176.269 186.056 175.028 186.693C173.44 187.411 171.704 187.744 169.963 187.665C168.383 187.752 166.8 187.534 165.303 187.021C164.815 186.829 164.401 186.487 164.121 186.043C163.841 185.6 163.71 185.079 163.746 184.556C163.724 184.208 163.78 183.859 163.907 183.534C164.035 183.21 164.233 182.917 164.486 182.677C165.112 182.202 165.891 181.973 166.674 182.033C167.051 182.033 167.425 182.085 167.788 182.188C168.169 182.282 168.56 182.334 168.952 182.342C169.615 182.374 170.277 182.251 170.883 181.982C171.412 181.676 171.846 181.231 172.138 180.694C172.631 179.856 173.057 178.98 173.413 178.075Z" fill="white"/>
<path d="M140.12 112.031C138.017 85.5447 135.909 59.0611 133.793 32.5796C133.677 31.1444 133.452 29.5032 132.242 28.718C131.416 28.292 130.483 28.1175 129.558 28.216L120.297 28.3126C119.817 28.366 119.332 28.2717 118.907 28.0423C118.186 27.5467 118.225 26.4977 118.263 25.6224C119.808 6.20534 97.0251 -6.59563 80.8324 3.58593C76.8731 6.16667 73.725 9.81543 71.7525 14.1103C69.7799 18.4051 69.0632 23.1706 69.6855 27.8556L57.4573 28.1967C56.5943 28.1233 55.7325 28.3507 55.0181 28.8403C54.2973 29.4839 54.1621 30.5201 54.0849 31.479L50.7704 70.0943C50.1783 76.9485 49.5927 83.8285 49.8887 90.6891C50.0496 94.4155 50.6095 98.4444 53.2289 101.096C55.3335 103.233 58.4613 104.102 61.4604 104.076C64.4595 104.05 67.3814 103.226 70.2647 102.415C70.9083 106.476 68.8874 110.724 70.0394 114.676C70.9855 117.926 73.9653 120.262 77.1768 121.337C80.3883 122.412 83.8444 122.418 87.2232 122.418H136.78C137.861 122.418 139.058 122.373 139.824 121.614C140.686 120.77 140.647 119.393 140.551 118.19L140.12 112.031ZM95.7765 89.5049C95.6092 89.344 95.4483 89.1703 95.2938 88.9965C94.0903 87.6643 92.7195 86.2484 90.9432 86.0231C89.3664 85.8236 87.8475 86.6152 86.4381 87.3811L84.3786 88.5074C83.9604 88.8064 83.449 88.9457 82.937 88.9C82.674 88.8242 82.4386 88.6739 82.2592 88.4671C82.0799 88.2604 81.9643 88.0061 81.9265 87.7351C81.862 87.191 81.9281 86.6394 82.1196 86.1261C82.7632 84.073 84.0504 81.975 83.4068 79.9219C82.6731 77.5792 79.867 76.6332 78.3675 74.6895C78.2174 74.5287 78.1246 74.3228 78.1036 74.1039C78.1036 73.6984 78.5155 73.4603 78.8759 73.2479L93.5883 65.7308L100.945 61.9722L104.626 60.0865C105.469 59.6618 107.2 58.4068 106.666 60.2989L98.3766 89.1574C98.3288 89.365 98.2461 89.563 98.1321 89.743C97.9468 89.9605 97.6945 90.1101 97.4148 90.1684C97.1352 90.2266 96.8441 90.1902 96.5875 90.0648C96.2825 89.9283 96.0071 89.7338 95.7765 89.4921V89.5049ZM93.4467 6.43059H93.5047C93.5626 6.43059 93.5562 6.25039 93.5819 6.16028C98.2203 6.27493 102.683 7.95831 106.241 10.9357C106.486 11.1352 106.724 11.3412 106.962 11.5793C110.238 15.7111 112.233 20.2806 111.834 25.6867C111.757 26.7358 111.918 27.8556 110.65 28.3705L109.466 28.3061C108.822 28.2611 108.133 28.2289 107.477 28.216C102.444 28.1259 97.4112 28.171 92.3848 28.1774C89.2763 28.1774 86.1742 28.1774 83.0592 28.1131C80.7552 28.0616 78.4447 27.9844 76.1342 27.8556C75.5679 21.748 77.0932 16.2711 81.1092 11.605C81.1606 11.5342 81.225 11.4634 81.2829 11.3927C84.6865 8.42292 88.9368 6.59718 93.4339 6.17316C93.4276 6.25917 93.4319 6.34563 93.4467 6.43059ZM125.131 116.059L89.4308 115.969C86.7583 116.033 84.0851 115.881 81.4374 115.512C79.8284 115.242 78.1165 114.727 77.1768 113.395C76.6558 112.543 76.3591 111.573 76.3144 110.576C76.076 107.54 76.7013 104.499 78.118 101.803C79.5347 99.1075 81.685 96.8677 84.3207 95.3423C86.9465 93.8749 90.3511 93.2313 92.8933 94.8403C94.2963 95.722 95.2424 97.1572 96.4587 98.277C97.6751 99.3969 99.4643 100.208 100.964 99.5127C102.328 98.8691 102.895 97.2602 103.294 95.8185C107.185 82.3289 111.072 68.8372 114.955 55.3433C115.599 53.168 115.85 50.1946 113.758 49.2871C112.51 48.7658 111.1 49.3965 109.897 50.0208L71.4875 69.8498C69.9687 70.6349 68.2245 71.7805 68.2696 73.4732C68.2696 74.8183 69.4023 75.8544 70.432 76.6911L75.703 81.0868C76.1327 81.3758 76.4577 81.7956 76.6298 82.2839C76.6802 82.895 76.5336 83.5062 76.2115 84.028C75.0852 86.6023 75.4263 89.7109 74.0876 92.2016C72.1569 95.8378 67.4844 96.8483 63.4041 97.4725C62.2556 97.7495 61.0578 97.7495 59.9094 97.4725C57.1548 96.5587 56.4662 93.0254 56.4147 90.1228C56.4084 85.2158 56.6533 80.3116 57.1484 75.4297L60.4436 36.1708C60.4066 35.9555 60.4237 35.7343 60.4933 35.5273C60.5629 35.3202 60.6828 35.1336 60.8423 34.9843C61.0018 34.835 61.1959 34.7277 61.4071 34.6719C61.6183 34.6161 61.8401 34.6137 62.0525 34.6648C79.1784 34.6648 96.3107 34.6133 113.437 34.7163L122.987 34.7806C124.004 34.7806 125.916 34.4138 126.759 35.0188C127.602 35.6237 127.75 37.5159 127.827 38.507L133.967 113.163C134.038 114.019 134.057 115.01 133.407 115.57C132.861 115.937 132.2 116.094 131.547 116.014L125.131 116.059Z" fill="url(#paint0_linear_2365_5738)"/>
<path d="M133.716 104.848C141.82 104.848 148.39 98.2786 148.39 90.1745C148.39 82.0703 141.82 75.5007 133.716 75.5007C125.612 75.5007 119.042 82.0703 119.042 90.1745C119.042 98.2786 125.612 104.848 133.716 104.848Z" fill="white"/>
<path d="M133.716 102.846C140.715 102.846 146.388 97.1727 146.388 90.174C146.388 83.1753 140.715 77.5018 133.716 77.5018C126.717 77.5018 121.044 83.1753 121.044 90.174C121.044 97.1727 126.717 102.846 133.716 102.846Z" fill="url(#paint1_linear_2365_5738)"/>
<path d="M140.01 93.0836H130.891C130.767 93.092 130.643 93.0693 130.531 93.0175C130.419 92.9658 130.321 92.8867 130.247 92.7875C130.157 92.6786 130.1 92.5458 130.084 92.4051C130.068 92.2645 130.093 92.1223 130.157 91.9959C130.216 91.8645 130.312 91.7531 130.433 91.6754C130.554 91.5977 130.695 91.557 130.839 91.5583C131.077 91.5583 131.315 91.5583 131.547 91.5583H139.083C139.175 91.5593 139.264 91.5274 139.333 91.4683C139.403 91.4091 139.449 91.3268 139.463 91.2365C139.463 91.1335 139.463 91.0241 139.515 90.9211L139.901 88.6428C140.049 87.7418 140.203 86.8472 140.351 85.9526C140.369 85.8931 140.371 85.83 140.359 85.7693C140.346 85.7085 140.318 85.6519 140.278 85.6046C140.237 85.5573 140.186 85.5208 140.128 85.4984C140.07 85.476 140.007 85.4684 139.946 85.4764H130.485C130.427 85.4764 130.395 85.4764 130.382 85.4056C130.337 85.058 130.286 84.7041 130.234 84.3565C130.235 84.2995 130.223 84.243 130.2 84.1909C130.176 84.1388 130.142 84.0923 130.1 84.0545C130.057 84.0167 130.007 83.9884 129.952 83.9717C129.898 83.955 129.84 83.9501 129.784 83.9575H127.338C127.24 83.9763 127.153 84.0324 127.095 84.114C127.038 84.1956 127.014 84.2964 127.029 84.3951C127.046 84.49 127.098 84.5752 127.174 84.6345C127.25 84.6939 127.345 84.7232 127.441 84.7169H129.52C129.816 86.77 130.118 88.8101 130.421 90.8567H130.363C130.038 90.9635 129.759 91.177 129.572 91.4625C129.384 91.748 129.298 92.0886 129.329 92.429C129.359 92.7693 129.504 93.0892 129.74 93.3367C129.976 93.5841 130.288 93.7444 130.627 93.7915C130.869 93.8044 131.112 93.8044 131.354 93.7915H131.998C131.832 93.8832 131.688 94.0084 131.574 94.159C131.46 94.3096 131.379 94.4823 131.336 94.6661C131.292 94.8498 131.287 95.0407 131.322 95.2264C131.356 95.4121 131.429 95.5885 131.536 95.7445C131.642 95.9004 131.78 96.0324 131.941 96.1321C132.101 96.2318 132.28 96.2969 132.467 96.3232C132.654 96.3496 132.845 96.3367 133.027 96.2853C133.208 96.2339 133.377 96.1452 133.523 96.0248C133.663 95.9147 133.779 95.7766 133.863 95.6192C133.948 95.4619 133.998 95.2888 134.012 95.1109C134.037 94.8471 133.985 94.5817 133.862 94.3472C133.738 94.1128 133.549 93.9196 133.317 93.7915H137.03C136.871 93.8849 136.732 94.0101 136.623 94.1593C136.513 94.3086 136.436 94.4787 136.395 94.6591C136.354 94.8395 136.35 95.0264 136.385 95.2081C136.419 95.3899 136.49 95.5628 136.594 95.7159C136.698 95.8691 136.832 95.9994 136.988 96.0986C137.144 96.1979 137.319 96.264 137.501 96.293C137.684 96.3219 137.871 96.313 138.05 96.2669C138.229 96.2208 138.397 96.1384 138.543 96.0248C138.718 95.889 138.854 95.7105 138.94 95.5065C139.026 95.3024 139.057 95.0797 139.032 94.8599C139.011 94.638 138.936 94.4247 138.814 94.2385C138.692 94.0522 138.526 93.8988 138.33 93.7915H139.997C140.071 93.7957 140.144 93.7769 140.206 93.7377C140.268 93.6984 140.317 93.6408 140.345 93.5727C140.363 93.5182 140.368 93.4604 140.36 93.4037C140.352 93.3469 140.331 93.2928 140.298 93.2455C140.266 93.1982 140.223 93.159 140.173 93.1309C140.123 93.1028 140.067 93.0866 140.01 93.0836ZM139.553 86.2358C139.553 86.3838 139.508 86.5254 139.482 86.667C139.289 87.8061 139.103 88.9517 138.91 90.0909C138.871 90.2968 138.832 90.5092 138.8 90.7345C138.8 90.8053 138.762 90.8181 138.697 90.8117H131.199C130.974 89.2928 130.755 87.774 130.556 86.2551L139.553 86.2358ZM132.667 95.6129C132.51 95.6129 132.359 95.5505 132.248 95.4394C132.137 95.3284 132.075 95.1778 132.075 95.0208C132.074 94.9428 132.089 94.8654 132.118 94.7932C132.148 94.7209 132.191 94.6553 132.246 94.6002C132.301 94.545 132.367 94.5014 132.439 94.472C132.511 94.4425 132.589 94.4278 132.667 94.4287C132.824 94.4287 132.975 94.491 133.086 94.6021C133.197 94.7131 133.259 94.8637 133.259 95.0208C133.259 95.1778 133.197 95.3284 133.086 95.4394C132.975 95.5505 132.824 95.6129 132.667 95.6129ZM137.693 95.6129C137.536 95.6129 137.386 95.5505 137.275 95.4394C137.164 95.3284 137.101 95.1778 137.101 95.0208C137.101 94.8637 137.164 94.7131 137.275 94.6021C137.386 94.491 137.536 94.4287 137.693 94.4287C137.85 94.4287 138.001 94.491 138.112 94.6021C138.223 94.7131 138.285 94.8637 138.285 95.0208C138.285 95.1778 138.223 95.3284 138.112 95.4394C138.001 95.5505 137.85 95.6129 137.693 95.6129Z" fill="white"/>
<defs>
<linearGradient id="paint0_linear_2365_5738" x1="139.367" y1="13.613" x2="69.0998" y2="116.948" gradientUnits="userSpaceOnUse">
<stop stop-color="#6980D7"/>
<stop offset="0.44" stop-color="#C6238B"/>
<stop offset="0.72" stop-color="#F9BF36"/>
<stop offset="1" stop-color="#46E0B9"/>
</linearGradient>
<linearGradient id="paint1_linear_2365_5738" x1="138.582" y1="79.7608" x2="124.333" y2="110.248" gradientUnits="userSpaceOnUse">
<stop stop-color="#6980D7"/>
<stop offset="0.44" stop-color="#C6238B"/>
<stop offset="0.72" stop-color="#F9BF36"/>
<stop offset="1" stop-color="#46E0B9"/>
</linearGradient>
</defs>
</svg>
