<svg width="220" height="217" viewBox="0 0 220 217" fill="none" xmlns="http://www.w3.org/2000/svg">
<path d="M11.451 164.275L28.5127 190.075V164.038C28.409 162.678 28.7929 161.327 29.5957 160.225C29.9628 159.804 30.4203 159.471 30.9342 159.251C31.448 159.031 32.0048 158.931 32.563 158.956C33.1241 158.933 33.6834 159.035 34.2004 159.254C34.7174 159.474 35.1793 159.805 35.5525 160.225C36.3667 161.322 36.7591 162.675 36.6578 164.038V198.473C36.6578 202.315 35.0653 204.236 31.8805 204.236C31.1493 204.244 30.4221 204.129 29.7292 203.895C29.067 203.649 28.4577 203.279 27.9341 202.805C27.3539 202.27 26.834 201.673 26.3837 201.024C25.9089 200.357 25.4267 199.674 24.952 198.977L8.31314 173.503V199.155C8.41417 200.522 7.99857 201.878 7.1485 202.953C6.77652 203.369 6.31847 203.7 5.8061 203.921C5.29374 204.143 4.73931 204.25 4.18125 204.236C3.61319 204.258 3.04749 204.152 2.52525 203.928C2.00301 203.703 1.53735 203.365 1.16208 202.938C0.330969 201.859 -0.0778674 200.514 0.0122691 199.155V165.418C-0.0308316 164.273 0.132498 163.129 0.494447 162.042C0.873279 161.123 1.52934 160.345 2.37123 159.817C3.21225 159.261 4.19687 158.962 5.20495 158.956C5.90534 158.939 6.60124 159.073 7.24493 159.349C7.79966 159.604 8.30264 159.958 8.72855 160.395C9.21909 160.919 9.65874 161.488 10.0416 162.094C10.5089 162.792 10.9762 163.518 11.451 164.275Z" fill="#062338"/>
<path d="M76.3223 187.672C76.346 189.962 75.9617 192.238 75.1874 194.393C74.4784 196.368 73.3584 198.171 71.9011 199.682C70.4543 201.161 68.7062 202.313 66.7752 203.057C64.6438 203.867 62.3787 204.267 60.0989 204.237C57.8173 204.273 55.5501 203.868 53.4226 203.042C51.4766 202.278 49.7163 201.107 48.2592 199.608C46.8021 198.108 45.6818 196.315 44.9734 194.348C43.47 189.979 43.47 185.232 44.9734 180.862C45.6801 178.908 46.7896 177.123 48.2299 175.625C49.6968 174.142 51.4686 172.995 53.4226 172.264C57.7338 170.688 62.464 170.688 66.7752 172.264C68.731 173.012 70.5022 174.174 71.9679 175.669C73.4163 177.173 74.531 178.965 75.2393 180.929C75.9963 183.095 76.3629 185.378 76.3223 187.672ZM68.1624 187.672C68.1624 184.349 67.4206 181.762 65.937 179.913C65.2457 179.014 64.3502 178.292 63.3246 177.809C62.299 177.325 61.1729 177.093 60.0396 177.131C58.5415 177.104 57.0711 177.536 55.8261 178.37C54.546 179.282 53.5671 180.555 53.0146 182.027C52.3316 183.829 52.0017 185.745 52.0429 187.672C52.0008 189.579 52.3283 191.475 53.0072 193.258C53.5571 194.722 54.5242 195.994 55.789 196.915C57.3698 197.963 59.2832 198.388 61.1591 198.107C63.035 197.826 64.7401 196.86 65.9444 195.394C67.4082 193.525 68.1402 190.951 68.1402 187.672H68.1624Z" fill="#062338"/>
<path d="M90.2685 163.615V176.07C91.63 174.613 93.2121 173.379 94.9567 172.413C96.8006 171.509 98.8389 171.073 100.891 171.144C103.401 171.088 105.874 171.757 108.013 173.073C110.115 174.421 111.77 176.362 112.768 178.652C113.949 181.389 114.523 184.35 114.452 187.331C114.477 189.63 114.159 191.92 113.509 194.126C112.946 196.07 112.02 197.889 110.78 199.489C109.617 200.975 108.13 202.175 106.433 202.998C104.675 203.836 102.749 204.259 100.802 204.237C99.6077 204.246 98.4175 204.093 97.2638 203.784C96.2701 203.535 95.3198 203.138 94.4449 202.605C93.734 202.178 93.0679 201.681 92.4568 201.121C91.9079 200.602 91.1883 199.83 90.2907 198.792V199.6C90.3807 200.859 89.9852 202.104 89.1854 203.079C88.828 203.463 88.3932 203.767 87.9099 203.97C87.4266 204.173 86.9056 204.272 86.3814 204.259C85.8615 204.281 85.3432 204.186 84.8645 203.982C84.3858 203.778 83.9587 203.47 83.6144 203.079C82.8635 202.081 82.4975 200.846 82.5833 199.6V163.993C82.49 162.666 82.8424 161.345 83.5848 160.24C83.9162 159.821 84.3429 159.487 84.8293 159.267C85.3158 159.046 85.8479 158.945 86.3814 158.971C86.9238 158.94 87.4662 159.032 87.9675 159.242C88.4688 159.451 88.9158 159.772 89.2745 160.181C89.9979 161.174 90.3497 162.389 90.2685 163.615ZM90.6542 187.843C90.6542 191.087 91.396 193.579 92.8797 195.32C93.5908 196.17 94.486 196.847 95.4975 197.299C96.509 197.752 97.6102 197.968 98.7177 197.931C99.7479 197.926 100.763 197.681 101.683 197.218C102.603 196.755 103.404 196.085 104.022 195.261C105.505 193.48 106.247 190.926 106.247 187.598C106.29 185.704 105.975 183.819 105.32 182.042C104.8 180.62 103.89 179.373 102.694 178.444C101.545 177.594 100.147 177.148 98.7177 177.175C97.2367 177.153 95.7862 177.597 94.571 178.444C93.2832 179.385 92.2879 180.67 91.7002 182.153C90.9666 183.958 90.6106 185.895 90.6542 187.843Z" fill="#062338"/>
<path d="M125.089 167.294C124.024 167.319 122.987 166.946 122.181 166.248C121.771 165.876 121.449 165.416 121.24 164.902C121.031 164.389 120.939 163.835 120.972 163.281C120.956 162.744 121.059 162.211 121.273 161.718C121.487 161.226 121.807 160.787 122.211 160.433C122.99 159.703 124.021 159.301 125.089 159.312C126.117 159.3 127.115 159.658 127.901 160.321C128.318 160.69 128.645 161.148 128.857 161.663C129.069 162.177 129.161 162.733 129.125 163.289C129.156 163.841 129.066 164.393 128.859 164.906C128.653 165.419 128.336 165.88 127.93 166.256C127.148 166.948 126.133 167.319 125.089 167.294ZM129.125 175.714V199.281C129.225 200.621 128.808 201.948 127.96 202.99C127.585 203.4 127.125 203.725 126.613 203.941C126.101 204.157 125.548 204.261 124.993 204.244C124.443 204.259 123.897 204.152 123.394 203.93C122.891 203.708 122.444 203.377 122.085 202.961C121.267 201.904 120.869 200.584 120.965 199.252V175.951C120.863 174.639 121.263 173.337 122.085 172.309C122.451 171.906 122.901 171.587 123.404 171.376C123.906 171.165 124.448 171.065 124.993 171.085C125.546 171.068 126.096 171.168 126.608 171.379C127.119 171.59 127.58 171.907 127.96 172.309C128.781 173.246 129.2 174.47 129.125 175.714Z" fill="#062338"/>
<path d="M137.544 199.282V163.935C137.448 162.607 137.836 161.29 138.635 160.225C139.003 159.807 139.461 159.477 139.975 159.26C140.489 159.043 141.045 158.944 141.602 158.972C142.156 158.953 142.708 159.054 143.22 159.268C143.732 159.482 144.192 159.803 144.569 160.211C145.397 161.262 145.802 162.585 145.704 163.92V199.282C145.805 200.619 145.394 201.945 144.554 202.991C144.177 203.398 143.718 203.72 143.205 203.934C142.693 204.147 142.141 204.248 141.587 204.23C141.036 204.246 140.489 204.139 139.984 203.917C139.48 203.695 139.032 203.363 138.672 202.946C137.865 201.901 137.465 200.6 137.544 199.282Z" fill="#062338"/>
<path d="M158.241 167.294C157.175 167.319 156.139 166.946 155.333 166.248C154.922 165.876 154.601 165.416 154.391 164.902C154.182 164.389 154.091 163.835 154.124 163.281C154.107 162.744 154.21 162.211 154.424 161.718C154.638 161.226 154.959 160.787 155.362 160.433C156.142 159.703 157.173 159.301 158.241 159.312C159.269 159.3 160.267 159.658 161.052 160.321C161.469 160.69 161.796 161.148 162.009 161.663C162.221 162.177 162.312 162.733 162.276 163.289C162.308 163.841 162.217 164.393 162.011 164.906C161.804 165.419 161.487 165.88 161.082 166.256C160.299 166.947 159.285 167.318 158.241 167.294ZM162.276 175.714V199.281C162.377 200.621 161.96 201.948 161.112 202.99C160.736 203.4 160.277 203.725 159.765 203.941C159.253 204.157 158.7 204.261 158.144 204.244C157.595 204.259 157.049 204.152 156.546 203.93C156.043 203.708 155.596 203.377 155.236 202.961C154.419 201.904 154.02 200.584 154.116 199.252V175.951C154.015 174.639 154.415 173.337 155.236 172.309C155.603 171.906 156.053 171.587 156.555 171.376C157.057 171.165 157.6 171.065 158.144 171.085C158.697 171.068 159.248 171.168 159.759 171.379C160.27 171.59 160.731 171.907 161.112 172.309C161.933 173.246 162.351 174.47 162.276 175.714Z" fill="#062338"/>
<path d="M171.148 171.797H172.038V166.901C172.038 165.588 172.038 164.557 172.15 163.815C172.194 163.137 172.392 162.478 172.728 161.887C173.058 161.321 173.531 160.853 174.101 160.529C174.709 160.177 175.401 159.996 176.103 160.003C177.156 160.011 178.164 160.429 178.915 161.167C179.462 161.67 179.831 162.336 179.968 163.066C180.147 164.117 180.224 165.183 180.198 166.249V171.797H183.166C184.12 171.731 185.065 172.025 185.814 172.621C186.108 172.885 186.342 173.211 186.498 173.574C186.654 173.938 186.73 174.332 186.719 174.727C186.757 175.197 186.654 175.667 186.423 176.077C186.192 176.487 185.842 176.818 185.421 177.027C184.25 177.524 182.982 177.75 181.712 177.687H180.228V192.679C180.212 193.67 180.257 194.661 180.361 195.647C180.429 196.269 180.688 196.855 181.103 197.323C181.357 197.557 181.658 197.735 181.985 197.845C182.312 197.954 182.659 197.994 183.002 197.961C183.657 197.94 184.308 197.856 184.946 197.709C185.572 197.563 186.21 197.479 186.852 197.457C187.188 197.459 187.519 197.531 187.825 197.667C188.132 197.804 188.407 198.002 188.633 198.25C188.891 198.504 189.095 198.808 189.231 199.144C189.368 199.479 189.434 199.839 189.426 200.201C189.426 201.512 188.709 202.518 187.275 203.22C185.314 204.015 183.202 204.372 181.088 204.266C178.544 204.266 176.638 203.836 175.295 202.983C174.012 202.172 173.088 200.901 172.713 199.43C172.252 197.441 172.046 195.402 172.098 193.362V177.687H171.029C170.059 177.755 169.098 177.456 168.337 176.849C168.037 176.584 167.799 176.257 167.638 175.891C167.478 175.524 167.4 175.127 167.409 174.727C167.401 174.326 167.484 173.927 167.652 173.562C167.821 173.197 168.07 172.875 168.381 172.621C169.179 172.032 170.158 171.741 171.148 171.797Z" fill="#062338"/>
<path d="M199.879 205.253L200.62 203.428L190.591 178.162C190.096 177.169 189.782 176.097 189.664 174.994C189.66 174.312 189.845 173.642 190.198 173.058C190.56 172.459 191.071 171.963 191.682 171.619C192.273 171.272 192.946 171.088 193.633 171.085C194.133 171.05 194.635 171.133 195.097 171.328C195.56 171.522 195.97 171.823 196.296 172.205C197.004 173.176 197.539 174.263 197.876 175.417L204.775 195.446L211.317 176.782C211.715 175.571 212.183 174.385 212.719 173.229C213.001 172.543 213.459 171.944 214.047 171.493C214.655 171.162 215.344 171.008 216.035 171.048C216.664 171.056 217.28 171.228 217.823 171.546C218.365 171.865 218.815 172.32 219.129 172.865C219.428 173.405 219.586 174.013 219.589 174.631C219.507 175.009 219.381 175.543 219.203 176.24C219.025 176.938 218.802 177.65 218.543 178.362L207.912 206.217C207.205 208.22 206.306 210.151 205.227 211.981C204.376 213.344 203.171 214.452 201.741 215.186C199.91 216.014 197.91 216.397 195.902 216.306C194.081 216.407 192.257 216.155 190.532 215.564C189.969 215.343 189.492 214.948 189.169 214.437C188.846 213.926 188.695 213.326 188.737 212.723C188.712 212.321 188.775 211.919 188.923 211.545C189.07 211.171 189.298 210.833 189.59 210.557C190.312 210.01 191.209 209.746 192.112 209.815C192.546 209.814 192.978 209.874 193.395 209.993C193.835 210.101 194.285 210.161 194.738 210.171C195.502 210.208 196.264 210.065 196.963 209.755C197.573 209.404 198.074 208.89 198.41 208.272C198.978 207.306 199.469 206.296 199.879 205.253Z" fill="#062338"/>
<path d="M161.505 129.128C159.081 98.6004 156.651 68.0749 154.213 37.5518C154.079 35.8976 153.82 34.006 152.425 33.101C151.472 32.6099 150.397 32.4087 149.332 32.5223L138.657 32.6336C138.104 32.6951 137.545 32.5865 137.055 32.3221C136.224 31.7509 136.268 30.5417 136.313 29.5328C138.093 7.15239 111.833 -7.60225 93.169 4.13321C88.6053 7.10782 84.9769 11.3134 82.7032 16.2638C80.4296 21.2141 79.6036 26.7069 80.3208 32.1069L66.2264 32.5001C65.2317 32.4155 64.2384 32.6776 63.4149 33.2419C62.5841 33.9837 62.4283 35.178 62.3393 36.2833L58.519 80.792C57.8365 88.6923 57.1614 96.6223 57.5027 104.53C57.6881 108.825 58.3335 113.469 61.3527 116.525C63.7784 118.988 67.3836 119.989 70.8405 119.96C74.2973 119.93 77.6651 118.98 80.9884 118.046C81.7302 122.727 79.401 127.623 80.7288 132.177C81.8193 135.923 85.2539 138.616 88.9555 139.855C92.6571 141.094 96.6407 141.101 100.535 141.101H157.655C158.901 141.101 160.281 141.049 161.163 140.174C162.157 139.202 162.113 137.615 162.002 136.228L161.505 129.128ZM110.394 103.165C110.201 102.98 110.016 102.779 109.837 102.579C108.45 101.043 106.87 99.4115 104.823 99.1519C103.005 98.9219 101.255 99.8343 99.6302 100.717L97.2564 102.015C96.7744 102.36 96.1849 102.52 95.5947 102.468C95.2916 102.38 95.0203 102.207 94.8136 101.969C94.6069 101.731 94.4737 101.438 94.4301 101.125C94.3556 100.498 94.4319 99.8622 94.6526 99.2706C95.3944 96.9042 96.878 94.4859 96.1362 92.1195C95.2906 89.4193 92.0563 88.3288 90.3278 86.0886C90.1548 85.9032 90.0479 85.6659 90.0237 85.4135C90.0237 84.9462 90.4985 84.6717 90.9139 84.4269L107.872 75.7625L116.351 71.4304L120.594 69.2569C121.566 68.7673 123.561 67.3207 122.945 69.5017L113.391 102.764C113.336 103.004 113.24 103.232 113.109 103.44C112.895 103.69 112.605 103.863 112.282 103.93C111.96 103.997 111.624 103.955 111.329 103.81C110.977 103.653 110.66 103.429 110.394 103.15V103.165ZM107.708 7.41202H107.775C107.842 7.41202 107.835 7.20431 107.864 7.10046C113.211 7.2326 118.354 9.1729 122.456 12.6047C122.738 12.8347 123.012 13.072 123.287 13.3465C127.062 18.1089 129.362 23.3758 128.902 29.607C128.813 30.8162 128.998 32.1069 127.537 32.7004L126.172 32.6262C125.43 32.5743 124.637 32.5372 123.88 32.5223C118.079 32.4185 112.278 32.4704 106.485 32.4778C102.902 32.4778 99.326 32.4778 95.7356 32.4037C93.08 32.3443 90.4169 32.2553 87.7538 32.1069C87.101 25.0671 88.8591 18.7543 93.488 13.3762C93.5473 13.2946 93.6215 13.213 93.6883 13.1314C97.6112 9.70842 102.51 7.60403 107.694 7.1153C107.686 7.21444 107.691 7.3141 107.708 7.41202ZM144.228 133.772L103.08 133.668C99.9993 133.742 96.9181 133.566 93.8663 133.142C92.0118 132.83 90.0385 132.237 88.9555 130.701C88.3549 129.719 88.0129 128.602 87.9615 127.452C87.6867 123.953 88.4074 120.447 90.0403 117.34C91.6732 114.233 94.1517 111.651 97.1896 109.893C100.216 108.202 104.14 107.46 107.071 109.315C108.688 110.331 109.778 111.985 111.18 113.276C112.582 114.567 114.644 115.501 116.373 114.7C117.945 113.958 118.598 112.104 119.058 110.442C123.544 94.8939 128.024 79.343 132.5 63.7897C133.242 61.2824 133.531 57.8552 131.12 56.8093C129.681 56.2084 128.056 56.9354 126.669 57.6549L82.3979 80.5101C80.6472 81.4152 78.6369 82.7356 78.6888 84.6865C78.6888 86.2369 79.9944 87.4312 81.1813 88.3956L87.2567 93.4622C87.7519 93.7952 88.1266 94.2791 88.325 94.8419C88.3831 95.5463 88.2141 96.2509 87.8428 96.8522C86.5446 99.8195 86.9378 103.402 85.3948 106.273C83.1694 110.464 77.7838 111.629 73.0807 112.349C71.757 112.668 70.3764 112.668 69.0527 112.349C65.8777 111.295 65.084 107.223 65.0246 103.877C65.0174 98.2213 65.2997 92.5687 65.8703 86.9416L69.6684 41.6911C69.6258 41.443 69.6455 41.1881 69.7257 40.9494C69.8059 40.7107 69.9441 40.4956 70.128 40.3236C70.3118 40.1515 70.5355 40.0278 70.779 39.9635C71.0225 39.8992 71.2781 39.8964 71.5229 39.9553C91.2625 39.9553 111.01 39.896 130.749 40.0146L141.758 40.0888C142.93 40.0888 145.133 39.666 146.105 40.3633C147.076 41.0606 147.247 43.2415 147.336 44.3839L154.413 130.434C154.495 131.421 154.517 132.563 153.768 133.208C153.138 133.631 152.377 133.812 151.624 133.72L144.228 133.772Z" fill="url(#paint0_linear_2365_5759)"/>
<path d="M154.124 120.85C163.464 120.85 171.037 113.278 171.037 103.937C171.037 94.5958 163.464 87.0234 154.124 87.0234C144.783 87.0234 137.21 94.5958 137.21 103.937C137.21 113.278 144.783 120.85 154.124 120.85Z" fill="white"/>
<path d="M154.124 118.542C162.19 118.542 168.73 112.003 168.73 103.936C168.73 95.8694 162.19 89.33 154.124 89.33C146.057 89.33 139.517 95.8694 139.517 103.936C139.517 112.003 146.057 118.542 154.124 118.542Z" fill="url(#paint1_linear_2365_5759)"/>
<path d="M161.378 107.29H150.867C150.725 107.299 150.582 107.273 150.452 107.214C150.323 107.154 150.21 107.063 150.125 106.949C150.021 106.823 149.956 106.67 149.937 106.508C149.919 106.346 149.948 106.182 150.021 106.036C150.089 105.885 150.2 105.756 150.339 105.667C150.479 105.577 150.642 105.53 150.808 105.532C151.082 105.532 151.356 105.532 151.624 105.532H160.31C160.416 105.533 160.518 105.496 160.598 105.428C160.679 105.36 160.732 105.265 160.748 105.161C160.748 105.042 160.748 104.916 160.807 104.797L161.252 102.171C161.423 101.133 161.601 100.102 161.772 99.0705C161.792 99.0019 161.795 98.9293 161.78 98.8592C161.765 98.7892 161.733 98.724 161.687 98.6694C161.64 98.6149 161.581 98.5729 161.514 98.547C161.447 98.5212 161.375 98.5125 161.304 98.5216H150.4C150.333 98.5216 150.296 98.5216 150.281 98.44C150.229 98.0394 150.17 97.6314 150.11 97.2309C150.111 97.1651 150.097 97.1 150.07 97.04C150.044 96.9799 150.004 96.9263 149.955 96.8827C149.906 96.8391 149.848 96.8066 149.785 96.7873C149.722 96.768 149.656 96.7625 149.591 96.7709H146.772C146.659 96.7926 146.559 96.8573 146.492 96.9514C146.426 97.0454 146.399 97.1616 146.416 97.2754C146.436 97.3847 146.495 97.4829 146.583 97.5513C146.67 97.6197 146.78 97.6535 146.891 97.6463H149.287C149.628 100.013 149.977 102.364 150.325 104.723H150.259C149.884 104.846 149.563 105.092 149.347 105.421C149.13 105.75 149.032 106.143 149.067 106.535C149.102 106.928 149.269 107.296 149.541 107.582C149.812 107.867 150.173 108.052 150.563 108.106C150.842 108.121 151.122 108.121 151.401 108.106H152.143C151.953 108.212 151.786 108.356 151.655 108.529C151.524 108.703 151.43 108.902 151.38 109.114C151.33 109.326 151.324 109.546 151.364 109.76C151.404 109.974 151.488 110.177 151.61 110.357C151.733 110.537 151.892 110.689 152.077 110.804C152.262 110.918 152.469 110.994 152.684 111.024C152.9 111.054 153.119 111.039 153.329 110.98C153.538 110.921 153.733 110.819 153.901 110.68C154.063 110.553 154.196 110.394 154.294 110.212C154.391 110.031 154.449 109.832 154.465 109.627C154.494 109.323 154.434 109.017 154.292 108.746C154.149 108.476 153.931 108.253 153.664 108.106H157.944C157.76 108.213 157.6 108.358 157.474 108.53C157.348 108.702 157.258 108.898 157.211 109.106C157.164 109.314 157.16 109.529 157.199 109.739C157.239 109.948 157.321 110.147 157.441 110.324C157.56 110.5 157.715 110.651 157.895 110.765C158.075 110.879 158.276 110.956 158.487 110.989C158.697 111.022 158.912 111.012 159.119 110.959C159.325 110.906 159.519 110.811 159.687 110.68C159.888 110.523 160.046 110.318 160.145 110.082C160.244 109.847 160.28 109.591 160.251 109.337C160.227 109.082 160.141 108.836 160 108.621C159.859 108.406 159.667 108.229 159.442 108.106H161.364C161.448 108.111 161.532 108.089 161.604 108.044C161.676 107.999 161.732 107.932 161.764 107.854C161.785 107.791 161.791 107.724 161.781 107.659C161.772 107.593 161.748 107.531 161.71 107.476C161.673 107.422 161.624 107.377 161.566 107.344C161.509 107.312 161.444 107.293 161.378 107.29ZM160.852 99.3969C160.852 99.5676 160.8 99.7308 160.77 99.894C160.548 101.207 160.332 102.527 160.11 103.84C160.065 104.078 160.021 104.323 159.984 104.582C159.984 104.664 159.939 104.679 159.865 104.671H151.223C150.963 102.921 150.711 101.17 150.481 99.4192L160.852 99.3969ZM152.914 110.205C152.733 110.205 152.56 110.133 152.432 110.005C152.304 109.877 152.232 109.704 152.232 109.523C152.231 109.433 152.248 109.344 152.282 109.26C152.316 109.177 152.366 109.101 152.429 109.038C152.493 108.974 152.569 108.924 152.652 108.89C152.735 108.856 152.824 108.839 152.914 108.84C153.095 108.84 153.269 108.912 153.397 109.04C153.525 109.168 153.597 109.342 153.597 109.523C153.597 109.704 153.525 109.877 153.397 110.005C153.269 110.133 153.095 110.205 152.914 110.205ZM158.708 110.205C158.527 110.205 158.353 110.133 158.225 110.005C158.097 109.877 158.025 109.704 158.025 109.523C158.025 109.342 158.097 109.168 158.225 109.04C158.353 108.912 158.527 108.84 158.708 108.84C158.889 108.84 159.062 108.912 159.19 109.04C159.318 109.168 159.39 109.342 159.39 109.523C159.39 109.704 159.318 109.877 159.19 110.005C159.062 110.133 158.889 110.205 158.708 110.205Z" fill="white"/>
<defs>
<linearGradient id="paint0_linear_2365_5759" x1="160.637" y1="15.6906" x2="79.6458" y2="134.796" gradientUnits="userSpaceOnUse">
<stop stop-color="#6980D7"/>
<stop offset="0.44" stop-color="#C6238B"/>
<stop offset="0.72" stop-color="#F9BF36"/>
<stop offset="1" stop-color="#46E0B9"/>
</linearGradient>
<linearGradient id="paint1_linear_2365_5759" x1="159.732" y1="91.9337" x2="143.308" y2="127.073" gradientUnits="userSpaceOnUse">
<stop stop-color="#6980D7"/>
<stop offset="0.44" stop-color="#C6238B"/>
<stop offset="0.72" stop-color="#F9BF36"/>
<stop offset="1" stop-color="#46E0B9"/>
</linearGradient>
</defs>
</svg>
