<svg width="1920" height="492" viewBox="0 0 1920 492" fill="none" xmlns="http://www.w3.org/2000/svg">
<path d="M-12 99.9055C-12 99.9055 49.6713 234.045 166.618 257.385C283.565 280.724 428.074 68.8029 593.977 64.9214C759.88 61.0399 883.177 222.388 1057.55 175.721C1231.92 129.055 1360.64 -102.746 1587.04 53.2516C1764.77 175.721 1818.81 175.721 1923 125.173V584H-12V99.9055Z" fill="url(#paint0_linear_2365_5734)"/>
<path d="M-1.04956 241.082C-1.04956 241.082 100.5 343.5 315 254.595C501.5 166 597.413 135.405 729.5 225C836 288 993.08 295.072 1179.9 173.528C1366.72 51.9836 1467.82 107.888 1565.1 235.238C1662.39 362.589 1841.29 366.543 1923 304.782V602H-3L-1.04956 241.082Z" fill="#001626"/>
<path d="M-2.8009 305C-2.8009 305 75.0125 380.603 200.585 361.244C326.158 341.884 426.971 198.665 564.918 258.663C702.864 318.661 801.904 450.287 1005.3 347.681C1208.7 245.075 1348.41 130.914 1466.9 250.922C1585.39 370.93 1652.67 508.353 1921.5 417.377C1921.5 417.377 1933.81 698.148 1914.35 698.148H-2.8009V305Z" fill="#F3F3F3"/>
<defs>
<linearGradient id="paint0_linear_2365_5734" x1="1923" y1="309.277" x2="-12.0609" y2="309.277" gradientUnits="userSpaceOnUse">
<stop stop-color="#6980D7"/>
<stop offset="0.44" stop-color="#C6238B"/>
<stop offset="0.72" stop-color="#F9BF36"/>
<stop offset="1" stop-color="#46E0B9"/>
</linearGradient>
</defs>
</svg>
