<svg width="68" height="74" viewBox="0 0 68 74" fill="none" xmlns="http://www.w3.org/2000/svg">
<path d="M65.6278 40.1721C63.3682 37.9211 59.97 38.0047 57.5317 40.4084C54.9377 42.9736 52.3697 45.5675 49.7844 48.1414C49.4961 48.4296 49.1849 48.6774 48.7958 49.0204C48.8361 42.3914 45.2074 38.0681 39.3739 37.5752C33.6931 37.0997 29.6176 40.9301 28.4763 48.0174C27.7932 47.6773 27.2369 47.4179 26.698 47.1326C21.4668 44.3686 15.0769 45.092 10.7882 49.1645C7.30653 52.456 4.01507 55.9694 0.642895 59.3877C-0.24194 60.2812 -0.221764 61.1401 0.7553 61.9817C5.20349 65.7919 9.64592 69.608 14.0826 73.4297C15.051 74.2685 15.8494 74.1532 16.6996 73.2741C17.9678 71.9656 19.2244 70.6369 20.5906 69.4293C21.1371 68.9424 21.8291 68.6496 22.5591 68.5963C28.2226 68.5329 33.889 68.556 39.5641 68.5588C41.2977 68.5903 43.0195 68.2687 44.6249 67.6137C46.2303 66.9586 47.6857 65.9838 48.9024 64.7486C54.4228 59.2705 59.9258 53.7741 65.4116 48.2595C67.8384 45.8097 67.9047 42.4404 65.6278 40.1721ZM35.3417 41.2673C36.712 40.5541 38.2744 40.2975 39.8009 40.5349C41.3274 40.7724 42.738 41.4915 43.8269 42.5874C44.8877 43.6421 45.5768 45.0133 45.7899 46.4941C46.0031 47.9748 45.7288 49.4847 45.0086 50.7959C43.2792 48.6659 40.8899 48.6198 38.4544 48.6774C36.215 48.7322 33.9726 48.6774 31.7649 48.6774C31.4709 47.2212 31.6613 45.7088 32.3071 44.3709C32.9529 43.0329 34.0186 41.943 35.3417 41.2673ZM63.3739 46.193C60.7454 48.859 58.0822 51.4933 55.4335 54.1392C52.6493 56.9196 49.8631 59.7057 47.0751 62.4976C46.0736 63.5373 44.8671 64.3577 43.532 64.907C42.1969 65.4562 40.7623 65.7222 39.3191 65.6882C33.4164 65.6565 27.5021 65.6421 21.6051 65.7228C20.7287 65.7832 19.8954 66.126 19.2302 66.6998C17.8525 67.8815 16.6362 69.2592 15.2816 70.6369L3.62597 60.6155C6.95491 57.252 10.0014 53.6867 13.5494 50.7267C17.0974 47.7667 21.363 47.5332 25.5393 49.8159C27.6839 51.0226 30.1115 51.6355 32.5719 51.5913C35.0679 51.5423 37.5638 51.5683 40.0656 51.5913C42.0831 51.5913 43.383 52.6808 43.4262 54.3611C43.4695 56.0905 42.1437 57.2433 40.0368 57.2433C36.0997 57.2568 32.1607 57.2568 28.2198 57.2433C27.162 57.2433 26.1705 57.4047 26.2022 58.6844C26.2339 59.9641 27.2196 60.1255 28.2688 60.1255C32.3038 60.1255 36.3389 60.1428 40.374 60.1255C42.968 60.1054 44.85 58.9179 45.9395 56.5199C46.1203 56.0849 46.3759 55.685 46.6946 55.3382C50.9603 51.0456 55.2356 46.7656 59.5204 42.498C60.7194 41.3048 61.9645 41.1117 63.1405 41.8697C64.6651 42.8583 64.7948 44.7519 63.3739 46.193Z" fill="#C6238B"/>
<path d="M9.61518 32.8972C10.6248 33.8277 11.8151 34.5405 13.1119 34.9915C14.4087 35.4424 15.7845 35.6219 17.1536 35.5186C18.5227 35.4154 19.8559 35.0316 21.0705 34.3913C22.285 33.7509 23.3548 32.8676 24.2135 31.7962C24.4531 31.4526 24.7776 31.177 25.1554 30.9961C25.5333 30.8153 25.9515 30.7355 26.3694 30.7644C38.5669 30.7913 50.7682 30.7971 62.9733 30.7817C65.1984 30.7817 65.4318 30.5454 65.4318 28.2828C65.4318 19.6862 65.4318 11.0886 65.4318 2.49005C65.4318 0.53304 65.1148 0.21888 63.1837 0.215998C57.3713 0.215998 51.5588 0.215998 45.7464 0.215998C44.6224 0.215998 43.1524 -0.0433996 43.187 1.68304C43.2216 3.40947 44.6829 3.09243 45.7983 3.0982C49.0062 3.11549 52.2112 3.0982 55.3816 3.0982C56.2635 6.71247 58.3013 9.02976 61.7426 10.0875C62.0856 10.1942 62.4804 10.811 62.4891 11.1972C62.5487 14.0794 62.5487 16.9616 62.4891 19.8438C62.4891 20.204 62.1375 20.7891 61.8348 20.8785C58.3157 21.9103 56.2607 24.2737 55.3787 27.7957H26.3175C27.6174 20.5355 21.9942 13.9987 13.5292 15.5868C13.5769 14.6774 13.5711 13.766 13.5119 12.8573C13.3044 11.1539 13.5811 9.94918 15.59 9.56873C16.4822 9.35043 17.2775 8.84389 17.8525 8.12763C19.0457 6.626 20.0314 4.95721 21.265 3.11261H31.3527C32.3154 3.11261 32.9725 2.63416 32.9754 1.67151C32.9783 0.708854 32.324 0.230409 31.3585 0.230409H30.782C24.8255 0.230409 18.869 0.230409 12.9124 0.230409C11.0476 0.230409 10.6355 0.639681 10.6326 2.51599C10.6326 6.83929 10.5865 11.1626 10.6585 15.4859C10.6884 15.9983 10.5972 16.5105 10.3924 16.9812C10.1876 17.4518 9.87498 17.8677 9.47972 18.1951C5.17084 22.21 5.26883 28.891 9.61518 32.8972ZM62.4142 6.99493C60.6157 6.88252 59.1429 5.48177 58.4857 3.15296H62.4142V6.99493ZM62.4632 23.7261V27.7784H58.4079C59.0449 25.7696 60.2957 24.4985 62.4632 23.7261ZM13.6272 3.20484H17.5499C17.3794 4.17798 16.9101 5.07388 16.2071 5.76807C15.5041 6.46226 14.6024 6.92028 13.6272 7.07851V3.20484ZM16.4316 18.2758C18.3105 18.3174 20.0982 19.0941 21.4109 20.4391C22.7235 21.7841 23.4564 23.5901 23.4523 25.4695C23.4481 27.3489 22.7072 29.1517 21.3887 30.4909C20.0701 31.83 18.279 32.5988 16.3999 32.6321C15.4452 32.649 14.4967 32.4753 13.6099 32.1211C12.7231 31.767 11.9159 31.2395 11.2355 30.5695C10.5551 29.8996 10.0152 29.1007 9.64736 28.2195C9.2795 27.3383 9.09112 26.3926 9.09323 25.4378C9.09533 24.4829 9.2879 23.5381 9.65964 22.6585C10.0314 21.779 10.5748 20.9825 11.2582 20.3155C11.9415 19.6486 12.7511 19.1247 13.6394 18.7745C14.5277 18.4242 15.4769 18.2547 16.4316 18.2758Z" fill="#C6238B"/>
<path d="M29.5888 15.6131C29.6042 17.2892 30.116 18.9232 31.0596 20.3085C32.0032 21.6939 33.3362 22.7685 34.8903 23.3966C36.4443 24.0248 38.1497 24.1782 39.7909 23.8376C41.4321 23.497 42.9356 22.6776 44.1113 21.4829C45.2871 20.2883 46.0824 18.7719 46.3968 17.1255C46.7112 15.479 46.5305 13.7764 45.8777 12.2325C45.2248 10.6887 44.1291 9.37299 42.7288 8.45162C41.3286 7.53024 39.6867 7.04453 38.0105 7.05586C36.8936 7.05765 35.7882 7.28121 34.7584 7.71357C33.7286 8.14593 32.7948 8.77848 32.0114 9.57453C31.2279 10.3706 30.6104 11.3143 30.1945 12.3509C29.7786 13.3875 29.5727 14.4963 29.5888 15.6131ZM43.6452 15.3998C43.6682 16.1419 43.5429 16.8812 43.2767 17.5742C43.0105 18.2673 42.6087 18.9004 42.0948 19.4363C41.581 19.9722 40.9654 20.4002 40.2841 20.6953C39.6028 20.9904 38.8695 21.1467 38.1271 21.1549C37.3847 21.1632 36.6481 21.0232 35.9604 20.7433C35.2727 20.4634 34.6478 20.0492 34.1221 19.5248C33.5965 19.0004 33.1808 18.3765 32.8992 17.6895C32.6177 17.0024 32.476 16.2662 32.4825 15.5238C32.4952 14.0623 33.0806 12.6642 34.1127 11.6295C35.1449 10.5948 36.5417 10.0062 38.0031 9.98998C39.4645 9.97376 40.874 10.5312 41.9289 11.5427C42.9838 12.5542 43.6 13.939 43.6452 15.3998Z" fill="#C6238B"/>
<path d="M52.1276 14.1229C51.5655 14.3478 50.7355 15.0597 50.796 15.4286C50.8911 16.005 51.5943 16.789 52.1391 16.8697C53.461 17.0729 54.8062 17.0729 56.128 16.8697C56.6353 16.7919 57.3789 15.9733 57.376 15.4949C57.3732 15.0164 56.6497 14.342 56.0963 14.1258C55.543 13.9097 54.7821 14.0739 54.1134 14.0739C53.4447 14.0624 52.704 13.8837 52.1276 14.1229Z" fill="#C6238B"/>
<path d="M38.1778 2.99172C38.5236 3.04648 39.3451 2.14435 39.3623 1.6515C39.3768 1.11253 38.7139 0.553382 38.3449 0L37.6763 0.0230576C37.3246 0.599497 36.6243 1.2307 36.7136 1.72067C36.803 2.21065 37.6071 2.89949 38.1778 2.99172Z" fill="#C6238B"/>
</svg>
