<svg width="32" height="37" viewBox="0 0 32 37" fill="none" xmlns="http://www.w3.org/2000/svg">
<path d="M30.937 21.2167C30.1141 19.7775 29.2712 18.3497 28.454 16.9062C28.2932 16.6165 28.0296 16.3976 27.7153 16.2928C26.0125 15.6453 24.3196 14.972 22.6168 14.323C22.2788 14.1946 22.1576 14.0606 22.2545 13.6626C22.5187 12.5725 22.4906 11.4321 22.1732 10.3563C21.7019 8.64327 20.5833 7.18058 19.0536 6.27723C17.524 5.37387 15.7031 5.10062 13.9757 5.51518C10.4502 6.32251 8.1741 9.84992 8.87006 13.4772C8.96846 13.9821 8.8886 14.1989 8.37946 14.3844C6.73225 14.9763 5.11071 15.6467 3.47919 16.28C3.2125 16.3841 2.94438 16.4711 2.78893 16.7421C1.90471 18.2826 1.01194 19.826 0.133429 21.365C-0.136115 21.8386 0.00650075 22.1681 0.527048 22.3635C1.12746 22.5803 1.71076 22.8456 2.31687 23.0496C2.66628 23.1679 2.7761 23.3505 2.76897 23.7171C2.74329 24.881 2.75898 26.0449 2.75898 27.2089C2.75898 28.3499 2.79036 29.491 2.74757 30.6321C2.72333 31.254 2.9401 31.5579 3.53196 31.7832C7.35691 33.2353 11.1709 34.7173 14.974 36.2292C15.1663 36.311 15.3733 36.3525 15.5823 36.3513C15.7913 36.3501 15.9978 36.3061 16.1891 36.2221C19.9998 34.7244 23.8157 33.241 27.6368 31.7718C28.1902 31.5607 28.4041 31.2712 28.397 30.6764C28.3699 28.3728 28.397 26.0678 28.377 23.7642C28.377 23.3762 28.4626 23.1665 28.8534 23.051C29.4238 22.8755 29.9615 22.6388 30.5091 22.4162C31.2208 22.1153 31.312 21.8728 30.937 21.2167ZM15.5445 6.48369C16.6736 6.47805 17.779 6.80765 18.7206 7.43075C19.6623 8.05386 20.3979 8.94244 20.8343 9.98397C21.2707 11.0255 21.3883 12.1731 21.1721 13.2815C20.9559 14.3899 20.4157 15.4092 19.6199 16.2103C18.8241 17.0115 17.8085 17.5584 16.7017 17.7818C15.5949 18.0052 14.4467 17.8951 13.4025 17.4655C12.3583 17.0358 11.4651 16.3059 10.8359 15.3681C10.2068 14.4304 9.87008 13.327 9.86837 12.1977C9.86386 11.4492 10.0073 10.7072 10.2905 10.0143C10.5737 9.32143 10.9911 8.69138 11.5185 8.16036C12.046 7.62935 12.6733 7.20786 13.3642 6.92011C14.0551 6.63237 14.7961 6.48405 15.5445 6.48369ZM1.84196 21.6503C1.50539 21.5205 1.37989 21.4349 1.60522 21.0655C2.20849 20.0756 2.76611 19.0557 3.35512 18.0544C3.43783 17.9118 3.47206 17.6693 3.72734 17.7149C3.85284 17.7606 3.96408 17.7991 4.0739 17.8419C7.471 19.1646 10.8667 20.4821 14.2609 21.7944C14.6032 21.9256 14.7558 22.0283 14.5119 22.4234C13.9129 23.389 13.3567 24.3818 12.8005 25.376C12.6237 25.6926 12.4768 25.8039 12.0875 25.6441C8.68181 24.2929 5.26664 22.9616 1.84196 21.6503ZM14.9626 34.9312C14.5077 34.8784 14.1069 34.6459 13.6791 34.4748C10.6114 33.288 7.54659 32.0842 4.47607 30.9089C4.06534 30.752 3.88992 30.5851 3.89563 30.1187C3.92415 28.0062 3.90846 25.8952 3.90846 23.67C6.56111 24.6999 9.1011 25.6669 11.6254 26.6654C13.2997 27.3315 13.0587 27.1718 13.8003 25.9223C14.1511 25.3318 14.4905 24.7341 14.8371 24.1407C14.8768 24.0865 14.9202 24.0351 14.9669 23.9867L14.9626 34.9312ZM15.2478 20.9614C11.8607 19.6348 8.46788 18.3226 4.92389 16.9475C6.09476 16.4783 7.13728 16.0561 8.18265 15.641C9.32358 15.186 9.32358 15.1888 10.0067 16.1474C12.8419 20.1483 18.8246 19.9686 21.3917 15.7694C21.7169 15.2359 21.9451 15.1988 22.4756 15.4285C23.6593 15.9534 24.8787 16.397 26.2592 16.9418C22.728 18.3126 19.3537 19.6191 15.9837 20.9357C15.8681 20.9923 15.742 21.0243 15.6134 21.0297C15.4847 21.0351 15.3564 21.0138 15.2364 20.9671L15.2478 20.9614ZM26.8767 30.8547C23.3855 32.1912 19.9014 33.5476 16.4144 34.897C16.3387 34.9182 16.2615 34.9335 16.1834 34.9426V23.884C16.7539 24.8639 17.2502 25.6684 17.6908 26.5057C17.9761 27.0605 18.3255 27.1589 18.9016 26.9336C21.4188 25.9237 23.9588 24.9523 26.4973 23.9624C27.2518 23.6686 27.2504 23.6672 27.2504 24.5102C27.2504 26.3873 27.2504 28.2629 27.2504 30.14C27.2575 30.4695 27.2389 30.7106 26.8653 30.8547H26.8767ZM29.2356 21.6888C26.4246 22.7529 23.6293 23.854 20.8284 24.9438C20.1452 25.2091 19.465 25.4829 18.8417 25.7283C18.5964 25.8039 18.5223 25.6669 18.4524 25.5457C17.822 24.4602 17.2088 23.3648 16.5642 22.2864C16.3374 21.907 16.6469 21.9013 16.838 21.8272C20.275 20.4835 23.7178 19.1499 27.152 17.7977C27.5028 17.655 27.6525 17.7663 27.8165 18.0615C28.3571 19.0343 28.9004 20.0071 29.4851 20.9542C29.7319 21.3607 29.7048 21.5105 29.2356 21.6888Z" fill="#062338"/>
<path d="M15.5959 3.78436C15.9966 3.76867 16.1521 3.4834 16.1464 3.09828C16.1407 2.71316 16.1464 2.29238 16.1464 1.88872C16.1464 1.48505 16.1464 1.08139 16.1464 0.679155C16.1464 0.276918 15.9724 0.0087604 15.5888 0.000202178C15.2051 -0.00835604 15.004 0.255523 15.004 0.652054C15.004 1.4822 15.004 2.31235 15.004 3.1425C15.0069 3.53475 15.1966 3.79863 15.5959 3.78436Z" fill="#062338"/>
<path d="M3.86418 12.6123C4.26493 12.628 4.66853 12.6123 5.07071 12.6123C5.49855 12.6123 5.9264 12.6123 6.35425 12.6123C6.72647 12.6123 7.01741 12.4697 7.02597 12.0417C7.03452 11.6138 6.7607 11.4712 6.37564 11.4712C5.54704 11.4712 4.71987 11.4712 3.89128 11.4712C3.52333 11.4712 3.27518 11.6324 3.25236 11.9861C3.22098 12.3841 3.47626 12.598 3.86418 12.6123Z" fill="#062338"/>
<path d="M19.7287 4.96688C19.984 5.15374 20.2806 5.1195 20.4261 4.88415C20.959 4.04725 21.4488 3.18364 21.8936 2.29672C22.0547 1.96295 21.7795 1.67767 21.3759 1.63916C21.2796 1.62868 21.1824 1.64644 21.0961 1.69025C21.0097 1.73406 20.938 1.80205 20.8896 1.88592C20.4266 2.68279 19.9707 3.48536 19.5219 4.29364C19.3707 4.56465 19.4948 4.79714 19.7287 4.96688Z" fill="#062338"/>
<path d="M23.3967 8.37995C24.2325 7.92352 25.1965 7.47564 26.0223 6.81095C26.2177 6.65262 26.1649 6.37305 26.0038 6.16337C25.8426 5.9537 25.5973 5.86098 25.372 5.98508C24.5419 6.43866 23.7229 6.91032 22.9147 7.40004C22.812 7.46496 22.7365 7.565 22.7021 7.68152C22.6677 7.79804 22.6769 7.92308 22.7279 8.03335C22.8177 8.27298 23.0117 8.39564 23.3967 8.37995Z" fill="#062338"/>
<path d="M5.222 6.77511C5.84666 7.14881 6.48701 7.51397 7.1302 7.87626C7.31132 7.98039 7.50528 8.06597 7.6265 8.12588C7.97306 8.12588 8.1827 8.02746 8.27255 7.77927C8.38807 7.46832 8.27255 7.22584 7.98732 7.06609C7.25142 6.63817 6.51268 6.21882 5.77821 5.78235C5.45589 5.59264 5.16924 5.63972 4.97671 5.94068C4.74852 6.28586 4.89114 6.57969 5.222 6.77511Z" fill="#062338"/>
<path d="M24.4151 11.7754C24.0529 11.7754 23.8361 11.9679 23.8318 12.3459C23.8249 12.4178 23.8334 12.4903 23.8567 12.5586C23.88 12.6269 23.9176 12.6895 23.967 12.7422C24.0164 12.7948 24.0764 12.8363 24.1431 12.8639C24.2098 12.8915 24.2816 12.9046 24.3538 12.9022C25.2508 12.9264 26.1493 12.925 27.0464 12.9022C27.1246 12.9067 27.2028 12.8937 27.2753 12.8641C27.3478 12.8345 27.4128 12.789 27.4654 12.731C27.5181 12.673 27.5571 12.604 27.5796 12.529C27.6021 12.4539 27.6075 12.3748 27.5954 12.2974C27.5965 12.2256 27.5825 12.1544 27.5543 12.0883C27.5262 12.0223 27.4845 11.9629 27.4319 11.914C27.3794 11.865 27.3171 11.8277 27.2493 11.8043C27.1814 11.7809 27.1093 11.772 27.0378 11.7782C26.61 11.7782 26.1821 11.7782 25.7543 11.7782C25.3122 11.7725 24.8629 11.7668 24.4151 11.7754Z" fill="#062338"/>
<path d="M10.7041 4.75469C10.7675 4.84174 10.8609 4.90217 10.9663 4.92431C11.0717 4.94644 11.1815 4.92869 11.2746 4.87451C11.3746 4.83561 11.4608 4.76772 11.522 4.67954C11.5833 4.59136 11.6168 4.48691 11.6183 4.37956C11.6226 4.33154 11.6178 4.28313 11.604 4.23692C11.179 3.31664 10.669 2.438 10.0809 1.6124C9.93827 1.40985 9.64163 1.43267 9.42913 1.57531C9.21664 1.71795 9.06689 1.94902 9.19667 2.1858C9.68061 3.05493 10.1831 3.91123 10.7041 4.75469Z" fill="#062338"/>
<path d="M14.1296 15.8995C14.5622 15.8843 14.9716 15.7005 15.2706 15.3875C16.6967 13.9611 18.1314 12.5347 19.549 11.0998C20.2436 10.3952 20.2507 9.50369 19.6089 8.89178C18.9971 8.30839 18.1329 8.34833 17.4526 9.01302C16.7395 9.70909 16.045 10.4251 15.3347 11.1255C14.9996 11.4564 14.6744 11.9813 14.2951 12.0298C13.9157 12.0783 13.7175 11.4293 13.4194 11.1041C12.8133 10.4408 11.979 10.3367 11.3258 10.8573C10.6726 11.3779 10.5799 12.2395 11.1233 12.9512C11.7237 13.7457 12.3612 14.5202 12.9773 15.2962C13.1164 15.4719 13.2908 15.6164 13.4893 15.7204C13.6879 15.8243 13.906 15.8854 14.1296 15.8995ZM11.9676 11.8629C12.0389 11.7876 12.1194 11.7214 12.2072 11.6661C12.2947 11.6805 12.378 11.7134 12.4518 11.7626C12.5256 11.8118 12.588 11.8762 12.635 11.9513C12.9588 12.3607 13.2796 12.7744 13.6119 13.1766C14.0811 13.7471 14.3008 13.7614 14.8213 13.2465C15.9195 12.161 17.0048 11.0627 18.1015 9.9744C18.294 9.78326 18.5108 9.44093 18.8003 9.71908C19.1312 10.0357 18.7618 10.2654 18.5564 10.4722C17.2501 11.7873 15.9294 13.0867 14.6345 14.4118C14.2651 14.7898 14.0155 14.8298 13.6818 14.3747C13.1627 13.6616 12.5937 12.9954 12.0532 12.3037C11.9576 12.181 11.8364 12.0341 11.9676 11.8629Z" fill="#062338"/>
</svg>
