<svg width="64" height="74" viewBox="0 0 64 74" fill="none" xmlns="http://www.w3.org/2000/svg">
<path d="M63.4257 13.7145C63.4191 5.71189 57.7105 0 49.7046 0C37.7057 0 25.7079 0 13.7112 0C5.71519 0 0 5.72511 0 13.731C0 29.258 0 44.7784 0 60.2921C0 68.2848 5.7218 73.9967 13.7244 74C25.7189 74 37.7167 74 49.7179 74C57.7105 74 63.4158 68.2749 63.4224 60.2756C63.4224 52.5143 63.4224 44.7541 63.4224 36.995C63.4224 29.236 63.4235 21.4758 63.4257 13.7145ZM58.137 60.0343C58.137 65.5016 54.8976 68.7145 49.3939 68.7145C37.5581 68.7145 25.7222 68.7145 13.8864 68.7145C8.53808 68.7145 5.29209 65.4355 5.29209 60.0508C5.29209 52.338 5.29209 44.6307 5.29209 36.9289C5.29209 29.2271 5.29209 21.5198 5.29209 13.807C5.28878 8.56783 8.59427 5.28878 13.8831 5.28878C25.7828 5.28878 37.6738 5.28878 49.5559 5.28878C54.9141 5.28878 58.1502 8.55791 58.1502 13.9492C58.1502 29.3087 58.1469 44.6704 58.1403 60.0343H58.137Z" fill="#C6238B"/>
<path d="M46.9777 21.1553C43.6722 21.1553 40.3667 21.1553 37.0843 21.1553C33.7161 21.1553 30.3775 21.1553 27.0257 21.1553C24.9796 21.1553 23.7632 22.1833 23.7897 23.836C23.8161 25.426 25.0094 26.4275 26.9431 26.4341C33.6488 26.4341 40.3546 26.4341 47.0603 26.4341C48.9907 26.4341 50.1873 25.4425 50.2138 23.836C50.2435 22.1833 49.0139 21.1553 46.9777 21.1553Z" fill="#C6238B"/>
<path d="M47.1495 34.3768C40.3909 34.3614 33.6312 34.3614 26.8703 34.3768C24.9531 34.3768 23.7698 35.4379 23.7896 37.0443C23.8094 38.6508 25.0027 39.6458 26.9331 39.6524C30.2386 39.6524 33.5441 39.6524 36.8265 39.6524C40.2344 39.6524 43.6424 39.6524 47.0503 39.6524C48.9874 39.6524 50.1806 38.6607 50.2137 37.0642C50.2468 35.4676 49.0403 34.3768 47.1495 34.3768Z" fill="#C6238B"/>
<path d="M47.0603 47.5757C40.3546 47.5757 33.6488 47.5757 26.9431 47.5757C25.0028 47.5757 23.8161 48.5673 23.7897 50.1705C23.7632 51.8232 24.9896 52.8512 27.0257 52.8579C30.3775 52.8579 33.7304 52.8579 37.0843 52.8579C40.3898 52.8579 43.6876 52.8579 46.9777 52.8579C49.0139 52.8579 50.2402 51.8199 50.2138 50.1705C50.1873 48.5905 48.9907 47.5988 47.0603 47.5757Z" fill="#C6238B"/>
<path d="M16.0746 21.1551C15.7185 21.1351 15.3619 21.1864 15.0258 21.3059C14.6897 21.4254 14.3809 21.6109 14.1174 21.8513C13.8538 22.0917 13.641 22.3823 13.4912 22.7061C13.3414 23.0298 13.2578 23.3802 13.2451 23.7367C13.2482 24.4301 13.5156 25.0962 13.9929 25.5992C14.4701 26.1023 15.1212 26.4043 15.8135 26.4439C16.1607 26.461 16.508 26.4096 16.8354 26.2926C17.1628 26.1755 17.4639 25.9951 17.7216 25.7617C17.9793 25.5283 18.1884 25.2464 18.3372 24.9321C18.4859 24.6178 18.5713 24.2773 18.5884 23.9301C18.6056 23.5828 18.5542 23.2356 18.4371 22.9082C18.3201 22.5808 18.1397 22.2796 17.9062 22.022C17.6728 21.7643 17.3909 21.5551 17.0766 21.4064C16.7624 21.2576 16.4219 21.1722 16.0746 21.1551Z" fill="#C6238B"/>
<path d="M15.916 34.3769C15.2246 34.3805 14.5612 34.6505 14.0638 35.1307C13.5664 35.6109 13.2732 36.2643 13.2451 36.9551C13.2486 37.6746 13.5373 38.3633 14.0479 38.8702C14.5586 39.3771 15.2494 39.6608 15.9688 39.659C16.6702 39.652 17.34 39.3667 17.831 38.8658C18.3219 38.3649 18.5938 37.6895 18.5868 36.9882C18.5798 36.2869 18.2944 35.617 17.7936 35.1261C17.2927 34.6351 16.6173 34.3632 15.916 34.3702V34.3769Z" fill="#C6238B"/>
<path d="M15.8664 47.5729C15.1729 47.5854 14.511 47.8649 14.0185 48.3532C13.5259 48.8414 13.2406 49.5008 13.222 50.1942C13.2368 50.9128 13.5353 51.5964 14.0525 52.0956C14.5697 52.5948 15.2634 52.869 15.9821 52.8584C16.6834 52.8417 17.3494 52.5471 17.8335 52.0394C18.3177 51.5317 18.5803 50.8525 18.5637 50.1512C18.547 49.4498 18.2524 48.7838 17.7447 48.2997C17.237 47.8156 16.5578 47.5529 15.8565 47.5696L15.8664 47.5729Z" fill="#C6238B"/>
</svg>
