<svg width="47" height="37" viewBox="0 0 47 37" fill="none" xmlns="http://www.w3.org/2000/svg">
<g clip-path="url(#clip0_1_8364)">
<path d="M37.1638 14.99C37.1638 14.1708 36.8587 13.8335 36.0439 13.8335C34.3727 13.8643 32.6995 13.8335 31.0264 13.8335C24.4007 13.8335 17.7737 13.8335 11.1455 13.8335C10.0276 13.8335 9.88924 13.9761 9.88355 15.1056C9.88355 16.0366 9.87219 16.9676 9.88355 17.8966C9.88355 18.2956 9.88356 18.5423 9.34352 18.4884C7.52825 18.2956 5.8513 18.8083 4.26341 19.6738C3.16258 20.3106 1.92842 20.6713 0.663187 20.7262C-0.324033 20.7455 0.0947304 21.4124 0.0416744 21.8518C-0.0398044 22.5689 0.515388 22.2932 0.814776 22.272C2.44056 22.1487 3.92613 21.5704 5.38517 20.8438C8.1346 19.4695 10.7571 19.7682 13.1806 21.6726C14.507 22.7115 15.7993 23.7928 17.1011 24.851C18.4028 25.9092 18.5468 27.0233 17.5918 28.438C17.3019 28.8698 17.1105 28.8698 16.7145 28.5922C15.0243 27.4146 13.2924 26.3024 11.6211 25.0996C11.0678 24.7026 10.8935 24.9416 10.6339 25.3733C10.3971 25.7588 10.1432 26.0229 10.7438 26.4084C12.7713 27.7268 14.7476 29.105 16.7354 30.4542C17.0182 30.6545 17.3422 30.7863 17.6828 30.8397C21.6373 31.4623 25.5881 32.1061 29.5427 32.7363C30.6038 32.906 31.1419 33.4032 31.087 34.1993C31.032 34.9953 30.4408 35.4194 29.3665 35.4194C25.6424 35.4194 21.9159 35.4194 18.1868 35.4194C17.2403 35.4127 16.2978 35.293 15.3786 35.0628C13.0821 34.5038 11.1038 33.2124 9.01761 32.1716C7.55667 31.4469 6.05974 30.884 4.42827 30.8108C3.23072 30.7568 2.03127 30.8108 0.82804 30.7819C0.295585 30.7684 -0.0265404 30.7819 -0.00948669 31.5124C0.00567216 32.1832 0.159156 32.4144 0.826145 32.3374C4.38089 31.9345 7.62678 32.8462 10.6491 34.7313C11.1956 35.0485 11.7586 35.3354 12.3355 35.5909C13.5956 36.1962 14.9049 36.6742 16.2995 36.7841C20.8983 37.1522 25.5066 36.9171 30.1092 36.9132C31.4356 36.9132 32.493 35.6584 32.5896 34.313C32.6419 33.6509 32.4609 32.9914 32.079 32.4526C31.6972 31.9137 31.1393 31.5306 30.5053 31.3717C29.7701 31.1905 29.0159 31.0999 28.2693 30.9862C25.1277 30.4773 21.986 29.9723 18.7477 29.4442C18.9372 29.1474 19.0812 28.9989 19.1267 28.8216C19.3825 27.7846 20.0741 27.6767 21.0101 27.6863C25.9955 27.7384 30.9809 27.6998 35.9681 27.721C36.817 27.721 37.1543 27.4107 37.1486 26.5356C37.136 22.6884 37.1411 18.8398 37.1638 14.99ZM11.3938 17.7868C11.299 15.3697 11.282 15.3697 13.6676 15.3928C13.8571 15.3928 14.0466 15.4083 14.327 15.4198C13.9878 16.8519 13.1768 17.7039 11.985 18.2262C11.5378 18.419 11.4051 18.2956 11.3843 17.7868H11.3938ZM31.3163 25.5565C31.176 26.0827 30.96 26.1867 30.4825 26.1848C27.1072 26.1668 23.7331 26.1668 20.3602 26.1848C19.8846 26.1848 19.6383 26.0923 19.5037 25.568C19.3143 24.8414 18.8254 24.2824 18.2437 23.814C17.3796 23.1201 16.525 22.4166 15.4677 21.5531C16.2484 21.5531 16.777 21.5531 17.3057 21.5531C18.1868 21.5531 18.4729 21.1348 18.2323 20.2732C18.1565 20.0072 18.0049 20.0149 17.8192 20.0149C17.3777 20.0149 16.9362 20.0361 16.4928 20.0149C15.6837 19.9648 14.867 19.8762 15.2233 21.3218L12.885 19.5311C14.3895 18.6965 15.4317 17.5169 15.786 15.8053C15.8789 15.3504 16.1764 15.3928 16.4947 15.3928C21.1939 15.3928 25.8919 15.3928 30.5886 15.3928C31.0131 15.3928 31.176 15.5239 31.2859 15.9499C31.8127 17.9737 33.0917 19.2998 35.0757 19.8048C35.7294 19.9725 35.6271 20.36 35.6346 20.7956C35.6422 21.2312 35.6934 21.6032 35.0548 21.7593C33.1088 22.274 31.8336 23.5808 31.3068 25.5565H31.3163ZM35.6555 23.7292C35.6271 24.0453 35.6555 24.3672 35.6555 24.6929C35.6555 26.1829 35.6555 26.1829 34.1188 26.1829C33.7398 26.0672 33.0368 26.4566 32.8397 25.9901C32.6427 25.5237 33.1353 24.9956 33.4575 24.5638C33.8865 24.0071 34.4592 23.5827 35.1117 23.3379C35.4774 23.1702 35.6877 23.2512 35.646 23.7292H35.6555ZM35.4338 18.2551C34.9752 18.4479 34.456 17.9506 34.0316 17.6249C33.4848 17.1876 33.0683 16.6043 32.8284 15.9402C32.6749 15.5547 32.7677 15.3427 33.2301 15.3851C33.5427 15.414 33.8592 15.3851 34.1775 15.3851C35.6365 15.3851 35.6365 15.3851 35.6365 16.9522C35.5266 17.3473 35.9113 18.0566 35.4338 18.2551Z" fill="#062338"/>
<path d="M46.9924 20.0461C46.8029 12.5732 41.7209 5.69981 34.6341 3.26154C31.9813 2.34984 29.2641 2.21492 26.5147 2.2978C25.9462 2.31707 25.679 2.19757 25.7852 1.57692C25.8108 1.35344 25.8108 1.1277 25.7852 0.904227C25.7321 0.106249 25.283 -0.217569 24.5952 0.133233C21.6329 1.61483 18.6769 3.11248 15.7273 4.6262C14.9693 5.0117 14.9523 5.71716 15.6818 6.09687C18.6529 7.63886 21.6367 9.15129 24.6331 10.6342C25.2754 10.9541 25.7226 10.6342 25.7814 9.88631C25.8004 9.56535 25.8004 9.24352 25.7814 8.92256C25.77 8.62959 25.8117 8.44648 26.1755 8.44455C28.6009 8.44455 31.0396 8.31541 33.3362 9.35047C38.0392 11.4707 40.5783 15.1445 40.9156 20.3545C40.9743 21.2874 41.3135 21.6151 42.1851 21.5553C42.782 21.5129 43.3827 21.5457 43.9834 21.5457C44.5196 21.5457 45.0558 21.5457 45.5921 21.5457C46.9242 21.5514 47.0303 21.4377 46.9924 20.0461ZM43.9189 20.0133C42.4713 20.0133 42.4713 20.0133 42.2723 18.5542C41.4082 12.2282 35.6934 7.08567 29.3323 6.92762C28.1026 6.89871 26.869 6.92762 25.643 6.92762C24.4171 6.92762 24.3166 6.99893 24.2731 8.27686C24.2731 8.39443 24.2465 8.51201 24.2219 8.72018C22.1963 7.69476 20.2313 6.7021 18.2683 5.70559C18.111 5.62464 17.9613 5.52634 17.679 5.36057L24.239 2.02602C24.256 2.34984 24.2825 2.56572 24.2712 2.77774C24.2314 3.57187 24.6198 3.84171 25.3664 3.84942C27.2878 3.87063 29.2073 3.76847 31.1305 4.0017C38.2647 4.86906 44.4912 11.1797 45.3154 18.427C45.4954 20.0133 45.4954 20.0133 43.9208 20.0133H43.9189Z" fill="#062338"/>
<path d="M23.5265 16.9331C22.777 16.9331 22.0443 17.1592 21.4211 17.5828C20.7979 18.0064 20.3121 18.6084 20.0253 19.3128C19.7385 20.0172 19.6634 20.7924 19.8096 21.5401C19.9559 22.2879 20.3168 22.9748 20.8468 23.514C21.3768 24.0531 22.0521 24.4202 22.7872 24.569C23.5223 24.7177 24.2843 24.6414 24.9768 24.3496C25.6693 24.0578 26.2611 23.5637 26.6776 22.9298C27.094 22.2958 27.3162 21.5505 27.3162 20.7881C27.3132 19.7666 26.913 18.7879 26.2029 18.0656C25.4929 17.3433 24.5307 16.9362 23.5265 16.9331ZM23.3863 23.1011C22.9383 23.0747 22.5079 22.914 22.1495 22.6392C21.791 22.3645 21.5205 21.988 21.3721 21.5572C21.2236 21.1264 21.2037 20.6605 21.315 20.2183C21.4264 19.776 21.6638 19.3771 21.9976 19.0719C22.3313 18.7667 22.7464 18.5688 23.1905 18.503C23.6347 18.4373 24.088 18.5068 24.4934 18.7027C24.8988 18.8985 25.2381 19.212 25.4687 19.6037C25.6992 19.9954 25.8107 20.4477 25.789 20.9037C25.7514 21.5163 25.4782 22.0893 25.0286 22.4987C24.579 22.908 23.989 23.121 23.3863 23.0914V23.1011Z" fill="#062338"/>
<path d="M31.0244 20.0074C30.8043 20.0248 30.5832 20.0248 30.3631 20.0074C29.9842 20.0074 29.6052 20.0074 29.2262 20.0074C29.0367 20.0074 28.8889 20.0074 28.815 20.2657C28.5744 21.1312 28.8586 21.5456 29.7416 21.5456C30.1831 21.5456 30.6284 21.5147 31.068 21.5552C31.6365 21.6072 31.8771 21.48 31.8828 20.8016C31.8885 20.098 31.6535 19.9111 31.0244 20.0074Z" fill="#062338"/>
</g>
<defs>
<clipPath id="clip0_1_8364">
<rect width="47" height="37" fill="white"/>
</clipPath>
</defs>
</svg>
