<svg width="68" height="64" viewBox="0 0 68 64" fill="none" xmlns="http://www.w3.org/2000/svg">
<path d="M67.8223 23.741C67.8139 22.3387 67.3361 20.9795 66.465 19.8804C65.594 18.7813 64.38 18.0056 63.0166 17.677C61.8553 17.4072 61.3581 16.9857 61.5703 15.8033C61.6052 15.4514 61.6052 15.097 61.5703 14.7451C61.4824 10.7702 58.7627 8.0353 54.7514 8.00498C49.6516 7.96253 44.5517 7.98375 39.455 8.00498C37.5994 8.00498 36.4806 8.99644 36.5261 10.5185C36.5685 11.986 37.6236 12.838 39.4489 12.841C44.194 12.841 48.939 12.841 53.6841 12.841C56.4129 12.841 56.6464 13.1624 56.7646 15.873C56.8192 17.1889 56.3856 17.4163 55.1759 17.389C50.5308 17.3162 45.8858 17.3526 41.2287 17.3617C39.6217 17.3617 38.6394 18.0682 38.4089 19.3173C38.1057 20.994 39.2245 22.1977 41.1802 22.2008C47.5928 22.2008 54.0055 22.2008 60.4151 22.2008C62.4769 22.2008 62.9741 22.7132 62.9802 24.7992C62.9802 26.7184 62.9256 28.6377 63.0045 30.56C63.0439 31.5605 62.862 32.0153 61.725 31.9244C60.3636 31.8501 58.9992 31.8501 57.6378 31.9244C55.7505 31.9583 53.951 32.7284 52.6233 34.0702C51.2957 35.4121 50.5448 37.2195 50.5308 39.1072C50.5066 40.1684 50.5005 41.2296 50.5308 42.2877C50.5866 44.0957 51.3272 45.8149 52.6028 47.0972C53.8785 48.3796 55.5937 49.1293 57.4013 49.1946C58.8658 49.2492 60.3333 49.2674 61.7947 49.1946C62.7043 49.1522 63.0348 49.3826 63.0075 50.3528C62.9287 52.3176 62.9863 54.2944 62.9832 56.2592C62.9832 58.4998 62.58 58.9091 60.3484 58.9091H16.4391C14.1742 58.9091 13.8407 58.5695 13.8376 56.2501C13.8376 50.8501 13.8376 45.4471 13.8376 40.0441C13.8376 38.7221 13.5071 37.6185 12.1761 37.1152C10.4964 36.4845 8.99554 37.7397 8.98947 39.7924C8.97128 45.3955 8.97128 50.9987 8.98947 56.6018C8.98947 61.1164 11.6212 63.7391 16.1238 63.7452C23.4955 63.7452 30.8663 63.7452 38.2361 63.7452C45.9101 63.7452 53.5871 63.7694 61.258 63.7452C64.8964 63.727 67.792 60.9921 67.8102 57.378C67.8829 46.1596 67.887 34.9473 67.8223 23.741ZM62.7649 44.116C62.0403 44.7224 60.4758 44.3252 59.2812 44.3404C58.579 44.3904 57.8734 44.364 57.177 44.2616C55.6307 43.9311 55.1273 42.3757 55.4063 39.0738C55.5276 37.6518 56.3523 36.8514 57.7197 36.7634C59.2357 36.6664 60.7517 36.7634 62.2434 36.724C62.8256 36.724 63.0409 36.909 63.0227 37.4972C62.9863 38.5523 63.0227 39.6196 63.0227 40.8839C62.8923 41.8633 63.526 43.4763 62.7649 44.116Z" fill="#C6238B"/>
<path d="M36.0319 17.91C36.011 14.3516 34.9367 10.8791 32.9446 7.93049C30.9526 4.98188 28.1319 2.68923 24.8385 1.34171C21.545 -0.00580765 17.9263 -0.347836 14.4387 0.358766C10.9511 1.06537 7.75083 2.78895 5.24159 5.31212C2.73235 7.83528 1.02651 11.045 0.339231 14.5365C-0.348051 18.0279 0.0140066 21.6447 1.37974 24.9307C2.74547 28.2166 5.0537 31.0245 8.0133 33.0002C10.9729 34.9759 14.4513 36.031 18.0097 36.0322C20.3865 36.0379 22.7408 35.5723 24.9364 34.6624C27.1321 33.7524 29.1255 32.4162 30.8015 30.7309C32.4774 29.0456 33.8026 27.0448 34.7004 24.8442C35.5982 22.6435 36.0508 20.2867 36.0319 17.91ZM4.85392 17.9524C4.86471 15.35 5.64638 12.8092 7.10024 10.6507C8.5541 8.49225 10.6149 6.81298 13.0225 5.82496C15.4301 4.83695 18.0765 4.58448 20.6275 5.09946C23.1784 5.61443 25.5196 6.87374 27.3554 8.71838C29.1911 10.563 30.4391 12.9102 30.9418 15.4637C31.4444 18.0171 31.1792 20.6622 30.1795 23.065C29.1799 25.4678 27.4907 27.5205 25.3253 28.9639C23.1598 30.4073 20.6152 31.1767 18.0128 31.175C16.2785 31.1782 14.5607 30.8379 12.9585 30.1738C11.3564 29.5097 9.90166 28.5348 8.67827 27.3055C7.45488 26.0762 6.48706 24.6168 5.83067 23.0115C5.17428 21.4062 4.84231 19.6867 4.85392 17.9524Z" fill="#C6238B"/>
<path d="M28.085 23.002C28.5701 21.68 27.9031 20.3732 26.384 19.7759C24.7468 19.1332 23.1125 18.4692 21.4358 17.9567C20.3049 17.6081 19.8258 17.1078 19.9198 15.8343C20.0532 13.8272 19.9956 11.8018 19.938 9.78552C19.8956 8.25436 18.8677 7.27503 17.473 7.29322C16.0783 7.31141 15.1444 8.29074 15.1141 9.86435C15.0838 11.3803 15.1141 12.8963 15.1141 14.4123C15.1141 15.7737 15.1657 17.1411 15.1141 18.4964C15.0383 20.0124 15.6872 20.9645 17.1122 21.4799C19.6621 22.3895 22.1938 23.381 24.7407 24.3118C26.2264 24.8606 27.609 24.3057 28.085 23.002Z" fill="#C6238B"/>
</svg>
