<svg width="76" height="76" viewBox="0 0 76 76" fill="none" xmlns="http://www.w3.org/2000/svg">
<path d="M8.48322 41.9895C9.35826 41.7623 10.1787 41.3615 10.8957 40.8109C11.6128 40.2602 12.2118 39.5711 12.6571 38.7843C13.1025 37.9976 13.3851 37.1293 13.4882 36.2311C13.5912 35.333 13.5127 34.4233 13.2572 33.5561C13.0855 32.9537 12.8054 32.4657 13.5071 31.8694C16.8715 29.0171 20.1726 26.0894 23.4767 23.1649C23.9496 22.7462 24.2959 22.6829 24.9164 22.957C28.0036 24.3154 30.5819 23.8094 32.9854 21.3938C33.4522 20.924 33.7926 20.8276 34.404 21.0565C36.3226 21.7763 38.2623 22.4329 40.208 23.0805C40.8405 23.2914 41.1116 23.5654 41.1899 24.3154C41.5333 28.5562 45.1055 31.282 49.2348 30.5471C53.1504 29.8514 55.5298 25.9238 54.3943 21.8818C54.1985 21.192 54.2708 20.8246 54.8069 20.3758C57.6863 17.9662 60.5447 15.5225 63.3819 13.0447C63.9151 12.5809 64.3036 12.5568 64.9331 12.8821C65.7532 13.3202 66.6597 13.5727 67.5882 13.6216C68.5168 13.6705 69.4447 13.5147 70.3064 13.1652C71.5357 12.7089 72.6068 11.9066 73.3903 10.8551C74.1738 9.8037 74.6364 8.54799 74.7222 7.23951C74.808 5.93103 74.5133 4.62568 73.8738 3.48093C73.2343 2.33617 72.2771 1.40092 71.1179 0.78799C69.9587 0.175063 68.6469 -0.0893528 67.3407 0.0266404C66.0346 0.142634 64.7899 0.63408 63.7568 1.4417C62.7238 2.24931 61.9464 3.33859 61.5186 4.57813C61.0908 5.81767 61.0308 7.15452 61.3459 8.42741C61.5115 9.1322 61.8519 9.70748 61.0176 10.3822C58.096 12.7495 55.2708 15.2344 52.4215 17.6861C52.0118 18.0415 51.7167 18.2012 51.1293 17.915C48.006 16.4091 45.1958 16.9211 42.8104 19.4481C42.3947 19.8909 42.0995 19.9541 41.5393 19.7493C39.7623 19.0807 37.9702 18.4512 36.157 17.8879C35.2082 17.5867 34.7474 17.1801 34.6179 16.0808C34.151 12.096 30.4373 9.43038 26.6724 10.2285C22.6243 11.0719 20.284 14.8669 21.4466 18.8548C21.6876 19.68 21.5551 20.1017 20.9406 20.6318C17.8202 23.3094 14.7029 25.9961 11.6699 28.7641C10.8416 29.517 10.2181 29.7158 9.22717 29.1225C8.5043 28.6948 7.60975 28.6135 6.73629 28.6225C6.18747 28.6606 5.64136 28.731 5.1008 28.8333C4.23696 29.0554 3.42531 29.4455 2.71221 29.9813C1.99912 30.517 1.39853 31.188 0.944737 31.9559C0.490948 32.7237 0.192847 33.5735 0.0674541 34.4566C-0.057939 35.3396 -0.00816855 36.2388 0.213924 37.1026C0.436016 37.9665 0.826082 38.7781 1.36185 39.4912C1.89761 40.2043 2.56859 40.8049 3.33647 41.2587C4.10434 41.7125 4.95408 42.0106 5.83716 42.136C6.72024 42.2614 7.61937 42.2116 8.48322 41.9895ZM67.8818 3.64444C68.2932 3.6316 68.7032 3.70022 69.088 3.84636C69.4728 3.9925 69.825 4.21327 70.1242 4.49597C70.4234 4.77868 70.6638 5.11775 70.8315 5.49368C70.9993 5.86961 71.091 6.27498 71.1016 6.6865C71.1168 7.11057 71.048 7.53346 70.8989 7.93077C70.7499 8.32809 70.5237 8.69195 70.2333 9.00138C69.9429 9.3108 69.5941 9.55966 69.2071 9.73358C68.82 9.9075 68.4023 10.003 67.9782 10.0147C67.1215 10.0077 66.3014 9.66618 65.6931 9.06292C65.0848 8.45966 64.7364 7.6425 64.7223 6.78589C64.7386 5.95472 65.0773 5.16243 65.6668 4.57627C66.2563 3.99012 67.0505 3.656 67.8818 3.64444ZM47.9728 20.692C48.8228 20.7028 49.6336 21.0508 50.227 21.6594C50.8204 22.2681 51.1477 23.0875 51.1369 23.9374C51.1261 24.7874 50.7781 25.5982 50.1695 26.1916C49.5609 26.785 48.7414 27.1122 47.8915 27.1015C47.0432 27.0907 46.2338 26.7433 45.6416 26.1358C45.0494 25.5283 44.7227 24.7105 44.7335 23.8621C44.7443 23.0138 45.0916 22.2045 45.6991 21.6122C46.3066 21.02 47.1245 20.6933 47.9728 20.7041V20.692ZM27.9554 13.6893C28.8129 13.7051 29.6293 14.0596 30.2263 14.6752C30.8234 15.2909 31.1526 16.1178 31.1421 16.9753C31.114 17.8071 30.7631 18.5952 30.1638 19.1727C29.5645 19.7501 28.7639 20.0716 27.9317 20.0688C27.0994 20.0661 26.301 19.7394 25.7055 19.158C25.11 18.5766 24.7643 17.7862 24.7417 16.9542C24.7392 16.0964 25.0754 15.2723 25.6772 14.6609C26.279 14.0495 27.0977 13.7004 27.9554 13.6893ZM6.80858 32.276C7.22031 32.2759 7.62791 32.3579 8.00755 32.5173C8.38719 32.6767 8.73124 32.9101 9.01955 33.2041C9.30787 33.498 9.53467 33.8465 9.68668 34.2291C9.8387 34.6117 9.91287 35.0209 9.90486 35.4325C9.90998 36.263 9.59033 37.0627 9.01412 37.6608C8.43791 38.259 7.65077 38.6083 6.82063 38.6342C5.96531 38.643 5.14144 38.3121 4.52987 37.7141C3.9183 37.1161 3.56902 36.2998 3.55869 35.4445C3.5573 35.0212 3.64103 34.6018 3.80489 34.2114C3.96875 33.821 4.20941 33.4675 4.51256 33.172C4.81571 32.8764 5.17518 32.6448 5.5696 32.4909C5.96402 32.3369 6.38536 32.2639 6.80858 32.276Z" fill="#C6238B"/>
<path d="M75.8002 22.2819C75.8002 20.4928 75.249 19.9205 73.496 19.9115C69.7853 19.8934 66.0756 19.8934 62.3669 19.9115C60.5989 19.9115 60.0929 20.4537 60.0929 22.294C60.0929 38.7372 60.0929 55.1784 60.0929 71.6176C60.0929 73.5512 60.6501 74.0994 62.6049 74.1084C66.1128 74.1205 69.6267 74.1205 73.1467 74.1084C75.2731 74.1084 75.8152 73.5633 75.8152 71.4519C75.8152 63.3317 75.8152 55.2115 75.8152 47.0913C75.8072 38.8185 75.8022 30.5487 75.8002 22.2819ZM70.8486 70.5272C68.8962 70.4233 66.9397 70.4233 64.9873 70.5272C63.897 70.5754 63.6741 70.1899 63.6801 69.1749C63.7223 61.7565 63.7012 54.338 63.7012 46.9226C63.7012 39.5554 63.7253 32.1882 63.6771 24.821C63.6771 23.7849 63.9 23.4385 64.9813 23.4897C66.9812 23.5831 68.9932 23.577 71.0052 23.4897C72.0232 23.4475 72.225 23.7909 72.2099 24.7427C72.1768 34.4652 72.1889 44.1878 72.1889 53.9103C72.1889 58.9704 72.1587 64.0335 72.213 69.0966C72.231 70.1718 72.0503 70.5995 70.8486 70.5272Z" fill="#C6238B"/>
<path d="M33.5486 31.7034C29.8339 31.6894 26.1192 31.6894 22.4044 31.7034C20.6334 31.7034 20.0792 32.2606 20.0792 34.0407C20.0792 46.8916 20.0792 59.7356 20.0792 72.5725C20.0792 74.4821 20.6545 75.0393 22.6093 75.0423C26.1714 75.0423 29.7335 75.0423 33.2956 75.0423C35.2173 75.0423 35.7745 74.467 35.7775 72.5183C35.7775 66.149 35.7775 59.7778 35.7775 53.4045C35.7775 46.9308 35.7775 40.4581 35.7775 33.9865C35.7865 32.2938 35.2082 31.7124 33.5486 31.7034ZM30.7807 71.4611C28.8831 71.3677 26.9706 71.3647 25.073 71.4611C23.9586 71.5183 23.6544 71.2231 23.6634 70.0786C23.7146 60.9133 23.6905 51.7449 23.6905 42.5765C23.6905 40.5224 23.7237 38.4682 23.6905 36.4171C23.6725 35.631 23.796 35.2575 24.7206 35.2876C26.8712 35.3559 29.0247 35.3559 31.1813 35.2876C32.121 35.2545 32.2023 35.6521 32.1993 36.4261C32.1722 42.0856 32.1842 47.745 32.1842 53.4075C32.1842 58.9675 32.1481 64.5276 32.2143 70.0876C32.2143 71.2472 31.871 71.5153 30.7807 71.4611Z" fill="#C6238B"/>
<path d="M53.4305 38.3176C49.8161 38.3056 46.2018 38.3056 42.5875 38.3176C40.5695 38.3176 40.0333 38.8658 40.0303 40.9169C40.0303 46.0332 40.0303 51.1535 40.0303 56.2779C40.0303 61.5427 40.0303 66.8086 40.0303 72.0755C40.0303 73.952 40.5996 74.5332 42.4158 74.5423C46.0783 74.5543 49.7398 74.5543 53.4004 74.5423C55.2075 74.5423 55.7918 74.0031 55.7949 72.2412C55.8109 61.7114 55.8109 51.1796 55.7949 40.6459C55.8039 38.8477 55.2226 38.3237 53.4305 38.3176ZM50.8613 70.949C48.8614 70.8346 46.8494 70.8828 44.8374 70.934C43.979 70.9581 43.6115 70.8045 43.6146 69.8075C43.6567 60.8861 43.6567 51.9647 43.6146 43.0434C43.6146 42.2452 43.7501 41.8777 44.6657 41.9049C46.8183 41.9711 48.9728 41.9711 51.1294 41.9049C52.0329 41.8808 52.2076 42.2061 52.1986 43.0313C52.1655 47.492 52.1835 51.9527 52.1835 56.4134C52.1835 60.7717 52.1534 65.148 52.2076 69.4943C52.2377 70.5485 52.0691 71.0183 50.8613 70.949Z" fill="#C6238B"/>
<path d="M15.8143 53.4047C15.8143 51.7511 15.1788 51.1156 13.5312 51.1036C9.81851 51.0775 6.10378 51.0775 2.38704 51.1036C0.634087 51.1036 0.0467582 51.706 0.0407343 53.489C0.0246706 60.0089 0.0246706 66.5297 0.0407343 73.0516C0.0407343 74.9311 0.59192 75.4612 2.47137 75.4612C6.08571 75.4772 9.70004 75.4772 13.3144 75.4612C15.2571 75.4612 15.8113 74.8949 15.8173 72.9522C15.8173 69.6933 15.8173 66.4313 15.8173 63.1724C15.8173 59.9135 15.8414 56.6666 15.8143 53.4047ZM12.221 70.9131C12.221 71.6209 12.0283 71.892 11.2903 71.88C9.1338 71.8438 6.97724 71.8257 4.8237 71.88C3.92012 71.9071 3.61892 71.642 3.61892 70.7023C3.68218 68.2476 3.64001 65.7898 3.64001 63.3321C3.64001 60.8261 3.67013 58.3202 3.62194 55.8022C3.60688 54.9649 3.8388 54.6516 4.71527 54.6727C6.87183 54.7269 9.02838 54.7179 11.1819 54.6727C11.971 54.6546 12.218 54.9137 12.212 55.7028C12.1899 60.7809 12.1929 65.8511 12.221 70.9131Z" fill="#C6238B"/>
</svg>
