<svg width="96" height="56" viewBox="0 0 96 56" fill="none" xmlns="http://www.w3.org/2000/svg">
<path d="M95.7519 28.135C94.9762 20.221 89.2842 13.7796 81.4002 12.4755C77.1958 11.7823 72.8154 12.1458 68.5173 12.0409C67.6705 12.0184 66.8236 12.0409 65.7144 12.0409C66.3702 9.07309 66.951 6.42009 67.5581 3.75209C68.2363 0.754346 67.678 0.0536222 64.5603 0.049875H19.2194C18.6573 0.049875 17.9566 -0.115001 17.5669 0.154796C16.9336 0.596964 16.068 1.36514 16.098 1.93471C16.1505 2.63543 16.9374 3.43358 17.5969 3.88699C18.024 4.18676 18.8072 3.99566 19.433 3.99566H63.3837C60.2923 17.5342 57.2795 30.7468 54.2818 43.8807H43.7897C42.1971 39.0543 39.1244 36.0828 33.9496 36.0678C28.7035 36.0678 25.6009 39.0655 24.012 43.9856C22.1385 43.9856 20.2649 43.9856 18.3913 43.9856C17.0198 43.9856 16.0118 44.4877 16.0081 45.9941C16.0043 47.5005 17.0648 47.9913 18.395 48.0213C19.6431 48.0908 20.8941 48.0908 22.1422 48.0213C23.5024 47.9014 24.1807 48.2911 24.7053 49.6851C26.1067 53.3873 28.9883 55.5007 32.8891 55.9241C36.7899 56.3475 40.5596 55.0173 42.0622 51.4687C43.5948 47.8452 45.9555 47.8602 48.8896 48.0363C49.7627 48.0888 50.6395 48.0363 51.5126 48.0363H67.9777C68.2475 48.737 68.4349 49.3291 68.6972 49.8874C70.5108 53.7433 73.5386 55.8567 77.8066 55.9728C79.7921 56.036 81.748 55.4793 83.4026 54.38C85.0572 53.2808 86.3284 51.6935 87.0397 49.8387C87.613 48.2986 88.3774 47.8564 89.865 48.0138C91.7386 48.2124 92.7241 47.4105 93.0314 45.4582C93.6497 41.5162 94.4928 37.6116 95.1636 33.6771C95.4746 31.8522 95.928 29.9486 95.7519 28.135ZM33.9233 51.9334C33.1425 51.9465 32.3671 51.8025 31.643 51.5099C30.919 51.2172 30.2613 50.782 29.7089 50.2299C29.1565 49.6779 28.7208 49.0204 28.4277 48.2966C28.1346 47.5728 27.9901 46.7974 28.0028 46.0166C27.9788 44.4426 28.5805 42.9235 29.6759 41.7929C30.7713 40.6624 32.2707 40.013 33.8447 39.9873C34.6405 39.9849 35.4289 40.1401 36.1644 40.4442C36.8999 40.7483 37.5677 41.1952 38.1294 41.759C38.6911 42.3227 39.1355 42.9923 39.4369 43.7289C39.7382 44.4655 39.8906 45.2545 39.8851 46.0503C39.8832 46.8306 39.7265 47.6027 39.4241 48.322C39.1216 49.0412 38.6795 49.6934 38.1232 50.2405C37.567 50.7877 36.9077 51.2191 36.1836 51.5097C35.4594 51.8003 34.6848 51.9443 33.9046 51.9334H33.9233ZM77.9565 51.9334C76.3798 51.9594 74.8572 51.359 73.7226 50.2638C72.5881 49.1686 71.9343 47.6681 71.9048 46.0915C71.8485 45.2755 71.9598 44.4566 72.2319 43.6851C72.5039 42.9137 72.9309 42.2061 73.4866 41.6059C74.0423 41.0057 74.715 40.5255 75.4632 40.195C76.2114 39.8644 77.0193 39.6904 77.8373 39.6838C78.6552 39.6771 79.4659 39.8379 80.2194 40.1562C80.9729 40.4746 81.6532 40.9437 82.2187 41.5348C82.7841 42.1259 83.2225 42.8265 83.5071 43.5934C83.7916 44.3602 83.9163 45.1772 83.8733 45.9941C83.8693 47.5664 83.2432 49.0733 82.1318 50.1855C81.0203 51.2976 79.5138 51.9247 77.9415 51.9296L77.9565 51.9334ZM91.4464 32.0246C90.7906 35.5769 90.1611 39.1442 89.4491 42.6778C89.3517 43.1575 88.8233 43.5472 88.4936 43.9818C88.1189 43.6521 87.6092 43.3935 87.4406 42.9888C85.5146 38.3386 82.1721 35.9479 77.638 36.0416C73.2613 36.1315 69.9375 38.7058 68.27 43.3111C68.2063 43.4835 68.1389 43.6596 68.0414 43.9069H58.4749C60.5908 34.5914 62.6867 25.3621 64.7627 16.219C69.9825 16.219 75.0637 15.8255 80.0587 16.3126C87.7891 17.0658 92.8478 24.3841 91.4314 32.0208L91.4464 32.0246Z" fill="#C6238B"/>
<path d="M27.8755 33.9201C27.8343 32.3501 26.6389 31.9679 25.2225 31.9828C21.4753 32.0166 17.7281 31.9828 13.9997 31.9828C10.2712 31.9828 6.50531 32.0016 2.78061 31.9828C1.31921 31.9828 0.0189331 32.2714 0.000197225 33.9801C-0.0185387 35.6888 1.30047 36.0373 2.74314 36.0373C10.2375 36.0373 17.7194 36.0373 25.1888 36.0373C26.6614 36.0373 27.9205 35.5989 27.8755 33.9201Z" fill="#C6238B"/>
<path d="M6.37042 24.0317C12.7306 24.0541 19.0921 24.0541 25.4548 24.0317C26.8076 24.0317 27.8867 23.4771 27.8905 22.0307C27.8905 20.4756 26.7926 19.9697 25.3387 19.9847C22.2173 20.0184 19.0996 19.9847 15.9707 19.9847C12.7893 19.9847 9.60049 19.9847 6.43038 19.9847C5.07015 19.9847 4.04342 20.4456 4.01344 21.9557C3.98347 23.4658 5.03268 24.0279 6.37042 24.0317Z" fill="#C6238B"/>
<path d="M10.556 12.056C12.9842 12.056 15.4086 12.056 17.8368 12.056C20.3249 12.056 22.813 12.056 25.3012 12.056C26.7101 12.056 27.883 11.5801 27.883 10.0213C27.883 8.46246 26.7588 7.99406 25.3124 8.00155C20.4011 8.02903 15.4873 8.02903 10.571 8.00155C9.12832 8.00155 7.99667 8.45496 7.98917 10.0063C7.98168 11.5576 9.1433 12.056 10.556 12.056Z" fill="#C6238B"/>
</svg>
