<svg width="73" height="76" viewBox="0 0 73 76" fill="none" xmlns="http://www.w3.org/2000/svg">
<path d="M72.9875 53.8154C72.8589 51.9826 71.7331 50.9383 70.1056 50.3056C68.9861 49.8692 67.8509 49.4515 66.6561 49.3705C65.684 49.3144 65.5837 49.0182 65.891 48.1236C66.6873 45.7551 66.9819 43.2483 66.7565 40.7611C66.2986 35.0475 63.7178 30.2784 60.1711 25.93C58.0921 23.3803 55.6461 21.1858 53.2722 18.9322C52.852 18.5332 52.3691 18.3088 52.99 17.4796C54.7398 15.1792 54.2788 12.7604 51.8862 11.0148C51.3656 10.6345 51.2747 10.3914 51.491 9.76799C52.2177 7.60538 52.7528 5.38381 53.0903 3.12861C53.266 2.0688 53.0182 1.14615 52.1308 0.497798C51.7328 0.194399 51.2498 0.0215118 50.7487 0.00308195C50.2475 -0.0153479 49.753 0.121592 49.3336 0.394934C45.4169 2.62364 41.5096 2.61118 37.5929 0.394934C37.1738 0.121151 36.6794 -0.0163257 36.1783 0.00154558C35.6771 0.0194168 35.1939 0.191751 34.7957 0.494681C33.8549 1.18355 33.6918 2.13426 33.88 3.26576C34.2067 5.41759 34.7144 7.5384 35.3977 9.6059C35.6455 10.3259 35.5577 10.6408 34.9117 11.099C32.6225 12.723 32.2274 15.5533 34.0587 17.5981C34.7455 18.3649 34.6106 18.6922 33.9552 19.2751C31.7413 21.2544 29.565 23.2743 27.6615 25.5622C23.9612 29.9978 21.2581 34.8636 20.7846 40.758C20.6779 42.0578 21.4619 43.847 20.471 44.5234C19.5302 45.1468 17.8306 44.5452 16.4916 44.7073C14.864 44.9068 14.4721 44.3114 14.5818 42.7778C14.7135 40.9575 14.2306 40.5522 12.4369 40.5429C8.98741 40.5273 5.53795 40.5616 2.08849 40.5273C0.705572 40.5491 0 41.104 0 42.4755V68.9706C0 70.3141 0.642854 70.9437 2.03205 70.925C4.95782 70.8876 7.88359 70.925 10.8125 70.925C14.3404 70.925 14.3404 70.925 14.701 67.4963C15.2686 67.3622 15.7076 67.7269 16.1717 67.9108C21.3417 69.9452 26.5086 72.0036 31.6723 74.0858C34.4409 75.2444 37.5443 75.3366 40.3775 74.3445C42.5939 73.5817 44.7327 72.6121 46.7653 71.4487C54.7335 66.9414 62.6642 62.3624 70.6261 57.8427C72.2286 56.9294 73.1192 55.6794 72.9875 53.8154ZM11.4334 55.6015C11.4334 59.2796 11.4083 62.9609 11.4522 66.6391C11.4522 67.5025 11.2421 67.7955 10.339 67.7674C8.36024 67.702 6.37523 67.7176 4.39649 67.7674C3.56549 67.7924 3.23309 67.6272 3.23936 66.6921C3.28117 59.3856 3.28117 52.0792 3.23936 44.7728C3.23936 43.9841 3.40556 43.6911 4.26165 43.7161C6.2937 43.7815 8.33829 43.7878 10.3609 43.7161C11.3017 43.6818 11.4553 44.0278 11.4459 44.8694C11.4114 48.4509 11.4334 52.0262 11.4334 55.6015ZM49.6283 3.8019C49.3681 5.98385 48.7158 7.8541 48.1106 9.74928C47.9287 10.3291 47.543 10.3945 47.035 10.3914C44.6329 10.3914 42.2339 10.3602 39.8225 10.3914C39.0887 10.3914 38.8597 10.061 38.6528 9.45628C38.0319 7.59441 37.5343 5.69412 37.1632 3.76761C41.4406 5.84982 45.4702 5.85605 49.6283 3.8019ZM37.8719 13.5428C39.7535 13.5428 41.635 13.5428 43.5165 13.5428C45.398 13.5428 47.2796 13.5584 49.1423 13.5428C50.0391 13.5428 50.7416 13.7641 50.7322 14.7896C50.7228 15.8151 49.9984 16.0364 49.1172 16.0364C45.3667 16.0364 41.6151 16.0364 37.8625 16.0364C37.0033 16.0364 36.235 15.893 36.1974 14.8551C36.1409 13.6955 36.9437 13.5334 37.8719 13.5428ZM29.0915 28.9193C31.7319 25.4001 35.2723 22.7537 38.1855 19.4995C38.5179 19.1286 38.9225 19.1878 39.3333 19.1878H44.5231C47.3925 18.4085 49.9074 19.7894 52.3095 22.3703C55.0691 25.3378 58.114 28.0496 60.2401 31.5408C63.3102 36.578 64.6648 41.8895 62.6391 47.7028C62.4878 48.2373 62.1969 48.7224 61.796 49.1089C61.395 49.4955 60.8982 49.7696 60.3562 49.9035C57.0321 50.957 54.0186 52.7618 50.8639 54.2269C50.0611 54.6009 49.6691 54.8503 49.2175 53.697C48.3458 51.4714 46.527 50.3368 44.0872 50.3212C41.4249 50.3212 38.7563 50.2962 36.1002 50.3212C35.7435 50.3451 35.3857 50.2929 35.051 50.1682C34.7162 50.0435 34.4121 49.8491 34.1591 49.598C31.6991 47.2482 28.5932 45.6763 25.2344 45.0814C24.1839 44.8912 24.0302 44.4268 23.98 43.5509C23.6069 37.9526 25.8176 33.2676 29.0821 28.9193H29.0915ZM69.0112 55.0124C60.1178 59.9997 51.397 65.2738 42.3907 70.0616C38.6277 72.0597 34.9963 72.2436 31.0357 70.4544C26.0622 68.2163 20.9257 66.3367 15.8362 64.3636C14.9424 64.0176 14.5473 63.6467 14.563 62.618C14.6288 58.1045 14.6163 53.5785 14.563 49.0712C14.563 48.1205 14.7919 47.8026 15.7766 47.8556C18.3292 47.9927 20.8912 47.7278 23.4438 48.0457C26.7927 48.4153 29.9091 49.9278 32.2619 52.3254C32.6422 52.7423 33.1127 53.068 33.6379 53.278C34.1632 53.488 34.7295 53.5769 35.2943 53.538C37.9566 53.4663 40.6252 53.5068 43.2845 53.538C43.8038 53.527 44.3223 53.5825 44.8273 53.7032C45.8527 53.9806 46.4799 54.7225 46.3952 55.7542C46.2886 56.8546 45.5423 57.5029 44.3726 57.5216C43.2029 57.5403 42.074 57.5216 40.9232 57.5216H27.5957C27.2312 57.4998 26.8657 57.4998 26.5013 57.5216C25.5605 57.6338 24.9082 58.0858 24.8988 59.0957C24.8988 60.1961 25.5636 60.6854 26.5953 60.6917C29.6246 60.7104 32.6539 60.6917 35.6894 60.6917C38.405 60.6917 41.1207 60.6667 43.8426 60.6917C45.4796 60.7104 46.9315 60.3301 48.1294 59.1612C48.4383 58.8841 48.7898 58.6579 49.1705 58.491C52.7245 56.7787 56.29 55.0757 59.867 53.3821C62.8178 51.9826 65.8251 52.0231 68.8167 53.192C69.2244 53.3478 69.7575 53.4632 69.7575 54.0866C69.7544 54.6227 69.3781 54.8066 69.0112 55.0124Z" fill="#C6238B"/>
<path d="M37.2385 42.506H38.2075C38.2761 42.506 38.344 42.4925 38.4074 42.4664C38.4708 42.4402 38.5283 42.4018 38.5767 42.3534C38.625 42.305 38.6633 42.2476 38.6893 42.1845C38.7153 42.1213 38.7284 42.0537 38.728 41.9855V37.0948C38.728 36.9576 38.6732 36.8259 38.5755 36.7289C38.4779 36.6319 38.3455 36.5774 38.2075 36.5774H37.2134C37.0745 36.5774 36.9413 36.5225 36.8431 36.4249C36.7449 36.3273 36.6897 36.1949 36.6897 36.0568V35.2495C36.6897 35.1114 36.7449 34.979 36.8431 34.8814C36.9413 34.7838 37.0745 34.7289 37.2134 34.7289H38.2075C38.2761 34.7289 38.344 34.7154 38.4074 34.6892C38.4708 34.663 38.5283 34.6246 38.5767 34.5763C38.625 34.5279 38.6633 34.4705 38.6893 34.4073C38.7153 34.3442 38.7284 34.2766 38.728 34.2084V31.509C38.728 28.7971 40.5123 26.4375 43.9806 26.4375C47.1447 26.4375 48.9102 28.5914 49.1517 30.9417C49.1587 31.0137 49.1504 31.0864 49.1274 31.155C49.1044 31.2237 49.0672 31.2868 49.0181 31.3402C48.9691 31.3937 48.9093 31.4363 48.8426 31.4654C48.776 31.4945 48.7039 31.5093 48.6311 31.509H47.5022C47.3732 31.5073 47.2494 31.4583 47.1545 31.3714C47.0596 31.2846 47.0003 31.1659 46.9879 31.0383C46.8311 29.6481 45.9499 28.4168 43.9304 28.4168C41.7353 28.4168 40.8698 29.7073 40.8698 31.509V34.2053C40.8698 34.3433 40.925 34.4757 41.0232 34.5733C41.1214 34.671 41.2546 34.7258 41.3935 34.7258H46.0252C46.1057 34.7257 46.1851 34.7441 46.2571 34.7797C46.3292 34.8152 46.392 34.8669 46.4407 34.9306C46.4893 34.9943 46.5224 35.0684 46.5373 35.147C46.5523 35.2256 46.5487 35.3065 46.5269 35.3835L46.3043 36.194C46.2736 36.3038 46.2077 36.4006 46.1165 36.4698C46.0254 36.539 45.9141 36.5768 45.7994 36.5774H41.3935C41.3249 36.5769 41.2569 36.59 41.1933 36.6158C41.1298 36.6417 41.0721 36.6797 41.0234 36.7278C40.9747 36.7759 40.9361 36.8331 40.9097 36.896C40.8834 36.959 40.8698 37.0266 40.8698 37.0948V41.9855C40.8698 42.1235 40.925 42.2559 41.0232 42.3536C41.1214 42.4512 41.2546 42.506 41.3935 42.506H48.9384C49.007 42.5056 49.0751 42.5187 49.1386 42.5445C49.2021 42.5703 49.2599 42.6084 49.3085 42.6565C49.3572 42.7046 49.3958 42.7617 49.4222 42.8247C49.4485 42.8877 49.4621 42.9553 49.4621 43.0235V43.9586C49.4621 44.0967 49.4069 44.2291 49.3087 44.3267C49.2105 44.4243 49.0773 44.4791 48.9384 44.4791H37.2385C37.0996 44.4791 36.9664 44.4243 36.8682 44.3267C36.77 44.2291 36.7148 44.0967 36.7148 43.9586V43.0235C36.7148 42.9553 36.7284 42.8877 36.7547 42.8247C36.7811 42.7617 36.8197 42.7046 36.8684 42.6565C36.917 42.6084 36.9748 42.5703 37.0383 42.5445C37.1018 42.5187 37.1699 42.5056 37.2385 42.506Z" fill="#C6238B"/>
</svg>
