<svg width="117" height="117" viewBox="0 0 117 117" fill="none" xmlns="http://www.w3.org/2000/svg">
<g clip-path="url(#clip0_1_13361)">
<path d="M116.649 47.1255C116.674 44.509 113.849 42.9412 111.442 43.776C109.446 44.4683 108.616 46.0107 108.647 48.1231C108.698 51.8747 108.647 55.6364 108.647 59.7392C107.96 59.2658 107.68 59.0978 107.425 58.8942C99.851 52.7451 92.0578 52.7858 84.6972 59.0876C77.7999 64.9821 70.9535 70.9174 64.0511 76.8119C60.1723 80.1206 56.3291 80.0595 52.4453 76.7C46.0162 71.1414 38.5335 70.6578 31.4479 75.3968C24.973 79.7236 18.5237 84.091 12.0437 88.4127C11.3718 88.8606 10.8119 89.6089 9.73784 89.5071C9.10537 87.0712 8.70317 84.5813 8.53653 82.0702C7.78826 67.8174 8.2413 53.5901 8.26675 39.3526C8.3273 36.385 8.60975 33.4261 9.11174 30.5006C10.6388 20.4931 15.556 13.1529 25.7417 10.2108C28.8367 9.32373 32.0174 8.76915 35.2299 8.55643C44.6317 7.90487 54.064 8.38845 63.4504 8.21538C66.077 8.16956 67.8332 6.59667 67.9299 4.33659C67.9475 3.78076 67.8511 3.22722 67.6466 2.71008C67.4422 2.19293 67.1339 1.72315 66.7409 1.32969C66.348 0.936225 65.8785 0.627422 65.3617 0.422316C64.8448 0.21721 64.2913 0.120146 63.7355 0.137109C52.4707 0.259276 41.1652 -0.651884 29.9564 1.01773C16.7166 3.00293 6.86183 9.4065 2.64199 22.7685C1.40332 26.7352 0.649564 30.8372 0.397183 34.9851C-0.315456 45.8122 0.178301 56.6748 0.0510439 67.5222C0.000141175 73.9665 -0.0354907 80.426 0.941842 86.8092C2.97795 100.161 9.38152 110.057 22.83 114.297C26.797 115.529 30.8995 116.273 35.0467 116.511C46.8205 117.234 58.6096 116.71 70.3936 116.857C75.8186 116.967 81.2443 116.676 86.6265 115.987C102.101 113.884 111.696 105.674 115.04 90.7389C118.268 76.3538 116.496 61.6735 116.649 47.1255ZM108.642 77.7536C108.133 81.1692 108.179 84.6662 107.42 88.0767C104.768 100.003 98.1814 106.045 86.0411 107.852C76.8429 109.217 67.6041 108.463 58.3856 108.748C49.1671 108.468 39.913 109.298 30.7352 107.822C24.3113 106.804 18.5186 104.579 14.2224 99.3211C13.2043 98.0435 13.2654 97.4276 14.7059 96.4808C21.8883 91.7468 29.0147 86.8652 36.192 82.0651C40.0861 79.4589 43.4253 79.7134 47.0496 82.8185C54.1759 88.9268 62.4527 88.9268 69.5588 82.8185C76.5053 76.873 83.4484 70.9208 90.3882 64.9618C94.3128 61.6073 98.0236 61.6226 101.989 64.9618C102.532 65.4972 103.12 65.9859 103.745 66.4227C108.184 69.0136 109.39 72.8517 108.642 77.7536Z" fill="#C6238B"/>
<path d="M42.3511 21.8386C39.3876 21.783 36.4745 22.6103 33.9825 24.2151C31.4905 25.8199 29.5321 28.1297 28.3566 30.8507C27.181 33.5716 26.8414 36.5808 27.3809 39.4953C27.9205 42.4098 29.3147 45.098 31.3864 47.2179C33.4581 49.3377 36.1135 50.7935 39.0148 51.3999C41.9162 52.0063 44.9324 51.7359 47.6796 50.6232C50.4269 49.5106 52.7811 47.6058 54.4428 45.1514C56.1045 42.6969 56.9985 39.8036 57.0111 36.8396C57.0505 32.908 55.5295 29.1212 52.7815 26.3092C50.0334 23.4973 46.2826 21.8896 42.3511 21.8386ZM42.0661 43.5689C40.7197 43.5679 39.404 43.1669 38.2858 42.4168C37.1677 41.6668 36.2976 40.6015 35.7859 39.3561C35.2741 38.1108 35.1439 36.7415 35.4117 35.4219C35.6795 34.1024 36.3332 32.8922 37.2898 31.9448C38.2465 30.9975 39.4631 30.3556 40.7852 30.1008C42.1072 29.8459 43.4752 29.9895 44.7155 30.5134C45.9558 31.0372 47.0125 31.9177 47.7516 33.0432C48.4907 34.1686 48.8788 35.4882 48.8667 36.8345C48.864 37.7237 48.6858 38.6036 48.3423 39.4238C47.9988 40.244 47.4967 40.9883 46.8649 41.614C46.2331 42.2396 45.4839 42.7344 44.6604 43.0699C43.8369 43.4054 42.9553 43.575 42.0661 43.5689Z" fill="#C6238B"/>
<path d="M95.0463 14.6288C95.0463 21.5685 95.0463 28.5066 95.0463 35.4429C95.0463 38.9094 93.6566 40.7368 91.0301 40.7673C88.4035 40.7979 86.912 38.9857 86.912 35.5498C86.912 28.5558 86.912 21.5617 86.912 13.8245C85.2984 15.5145 84.2142 16.7718 83.0027 17.8967C81.1905 19.5613 78.9305 19.5358 77.3067 17.9578C76.9274 17.5879 76.6251 17.1466 76.4169 16.6594C76.2087 16.1722 76.0989 15.6487 76.0937 15.1189C76.0885 14.5891 76.188 14.0635 76.3866 13.5724C76.5851 13.0812 76.8788 12.6341 77.2507 12.2567C80.8342 8.52384 84.4755 4.86054 88.1744 1.26681C89.8593 -0.367172 92.1652 -0.316269 93.8908 1.35843C97.532 4.90126 101.116 8.50348 104.641 12.1651C105.023 12.5332 105.329 12.9731 105.541 13.4594C105.753 13.9458 105.867 14.4692 105.876 14.9996C105.886 15.5301 105.791 16.0572 105.596 16.5508C105.402 17.0444 105.112 17.4948 104.743 17.8764C103.114 19.5562 100.737 19.5714 98.8589 17.7847C97.7085 16.6954 96.721 15.4381 95.6571 14.2521L95.0463 14.6288Z" fill="#C6238B"/>
</g>
<defs>
<clipPath id="clip0_1_13361">
<rect width="117" height="116.893" fill="white"/>
</clipPath>
</defs>
</svg>
